<svg width="95" height="23" viewBox="0 0 95 23" fill="none" xmlns="http://www.w3.org/2000/svg">
<path d="M94.3041 14.8218C95.0034 14.3777 95.2104 13.4507 94.7663 12.7514L87.5292 1.35514C87.0851 0.65581 86.1581 0.448905 85.4588 0.893008C84.7595 1.33711 84.5526 2.26405 84.9967 2.96338L91.4296 13.0934L81.2996 19.5263C80.6003 19.9704 80.3934 20.8974 80.8375 21.5967C81.2816 22.296 82.2085 22.5029 82.9079 22.0588L94.3041 14.8218ZM1 13.5555C1.48599 14.9746 1.48559 14.9748 1.48533 14.9748C1.48543 14.9748 1.4853 14.9749 1.4855 14.9748C1.48589 14.9746 1.48684 14.9743 1.48834 14.9738C1.49134 14.9728 1.49656 14.971 1.50399 14.9685C1.51883 14.9636 1.54251 14.9557 1.57494 14.945C1.63982 14.9237 1.73973 14.8913 1.87418 14.8489C2.14307 14.7642 2.55006 14.6398 3.09099 14.4848C4.17288 14.1747 5.79045 13.7423 7.91055 13.2604C12.1509 12.2967 18.4006 11.1357 26.3947 10.3611C42.3821 8.8119 65.3464 8.80819 93.1732 15.0195L93.8268 12.0916C65.6536 5.80293 42.3679 5.79922 26.1053 7.37504C17.9744 8.16292 11.5991 9.34562 7.2457 10.335C5.06893 10.8297 3.39743 11.2762 2.26448 11.6009C1.69799 11.7632 1.26611 11.8952 0.97299 11.9875C0.826428 12.0336 0.714554 12.0699 0.637886 12.0951C0.599552 12.1077 0.570019 12.1175 0.549352 12.1245C0.539018 12.128 0.530901 12.1307 0.525009 12.1327C0.522062 12.1337 0.519672 12.1345 0.517839 12.1351C0.516923 12.1354 0.515966 12.1358 0.515508 12.1359C0.514691 12.1362 0.514013 12.1364 1 13.5555Z" fill="#6EA44C"/>
</svg>
