<svg width="118" height="39" viewBox="0 0 118 39" fill="none" xmlns="http://www.w3.org/2000/svg">
<path id="Vector 27" d="M1.56564 25.8663C1.1102 25.5539 0.487745 25.6698 0.175349 26.1253C-0.137046 26.5807 -0.0210844 27.2032 0.434358 27.5156L1.56564 25.8663ZM117.173 0.994366C117.17 0.442091 116.72 -0.00311131 116.168 -2.1958e-05L107.168 0.0503432C106.615 0.0534344 106.17 0.503648 106.173 1.05592C106.176 1.6082 106.627 2.0534 107.179 2.05031L115.179 2.00554L115.224 10.0054C115.227 10.5577 115.677 11.0029 116.229 10.9998C116.781 10.9967 117.227 10.5465 117.223 9.99423L117.173 0.994366ZM0.434358 27.5156C18.6467 40.0077 67.1825 51.9642 116.884 1.7031L115.462 0.296825C66.4676 49.8427 19.012 37.8331 1.56564 25.8663L0.434358 27.5156Z" fill="#6EA44C"/>
</svg>
