<svg width="47" height="19" viewBox="0 0 47 19" fill="none" xmlns="http://www.w3.org/2000/svg">
<path id="Vector 2" d="M0.708861 2.49004C0.180559 2.65102 -0.117209 3.2098 0.0437771 3.7381C0.204762 4.2664 0.76354 4.56417 1.29184 4.40318L0.708861 2.49004ZM42.312 18.8719C42.8374 19.0421 43.4013 18.7541 43.5715 18.2287L46.3453 9.66686C46.5156 9.14146 46.2276 8.57755 45.7022 8.40734C45.1768 8.23712 44.6129 8.52505 44.4427 9.05045L41.9771 16.661L34.3665 14.1954C33.8411 14.0252 33.2772 14.3131 33.107 14.8385C32.9368 15.3639 33.2247 15.9278 33.7501 16.098L42.312 18.8719ZM1.00035 3.44661C1.29184 4.40318 1.29156 4.40327 1.29139 4.40332C1.29149 4.40329 1.29143 4.40331 1.29162 4.40325C1.292 4.40314 1.29282 4.40289 1.29408 4.40251C1.29662 4.40175 1.30092 4.40045 1.30699 4.39865C1.31912 4.39504 1.33826 4.38939 1.36424 4.38186C1.41621 4.36678 1.49551 4.34418 1.60071 4.31529C1.81112 4.25752 2.12502 4.17467 2.53091 4.07682C3.34293 3.88106 4.52172 3.62559 5.97558 3.39066C8.88695 2.92023 12.8822 2.53534 17.2343 2.86815C25.9297 3.5331 35.9425 7.04141 41.7296 18.3753L43.5108 17.4658C37.2987 5.29964 26.5016 1.57099 17.3868 0.873975C12.8339 0.52581 8.67403 0.928692 5.65655 1.41627C4.14598 1.66036 2.91692 1.92646 2.06218 2.13252C1.6347 2.23558 1.3005 2.3237 1.07116 2.38667C0.956485 2.41816 0.867993 2.44336 0.807136 2.46101C0.776706 2.46984 0.753181 2.47678 0.736743 2.48167C0.728523 2.48411 0.722075 2.48604 0.717421 2.48745C0.715093 2.48815 0.713215 2.48872 0.711787 2.48915C0.711074 2.48936 0.710341 2.48959 0.709985 2.48969C0.709366 2.48988 0.708861 2.49004 1.00035 3.44661Z" fill="#6EA44C"/>
</svg>
