<svg width="15" height="53" viewBox="0 0 15 53" fill="none" xmlns="http://www.w3.org/2000/svg">
<path d="M10.2632 51.4898C10.0371 51.9937 9.44528 52.2188 8.94142 51.9927L0.730534 48.3074C0.226674 48.0812 0.00154304 47.4894 0.227691 46.9856C0.453838 46.4817 1.04563 46.2566 1.54949 46.4827L8.84805 49.7586L12.1239 42.46C12.35 41.9561 12.9418 41.731 13.4457 41.9571C13.9495 42.1833 14.1747 42.7751 13.9485 43.2789L10.2632 51.4898ZM4.05884 1.16216C4.2455 0.642371 4.81818 0.372312 5.33797 0.558966C5.85775 0.745619 6.12781 1.3183 5.94116 1.83809L4.05884 1.16216ZM8.41624 51.4359C6.15674 45.4965 3.67505 36.8501 2.44837 27.751C1.2242 18.6706 1.23427 9.02797 4.05884 1.16216L5.94116 1.83809C3.27424 9.26487 3.22411 18.5357 4.43044 27.4838C5.63426 36.4134 8.07376 44.9108 10.2855 50.7248L8.41624 51.4359Z" fill="#6EA44C"/>
</svg>
