<svg width="159" height="160" viewBox="0 0 159 160" fill="none" xmlns="http://www.w3.org/2000/svg">
<g id="Laag_1" clip-path="url(#clip0_3465_20396)">
<path id="Vector" d="M158.837 0.164679C158.837 0.0581219 158.837 0 158.837 0L158.673 0.164679C149.46 0.213114 -63.3034 8.03051 18.8041 120.584C23.4396 126.938 32.3921 136.015 38.6791 140.742C149.875 224.293 158.789 9.56106 158.837 0.319671L159.001 0.154992C159.001 0.154992 158.943 0.154992 158.837 0.154992V0.164679Z" fill="#004D37"/>
<path id="Vector_2" d="M84.687 42.9231C85.5078 42.9618 86.2128 42.3321 86.2515 41.5088L86.4929 36.7331C86.5605 35.3866 87.6035 34.2338 88.9459 34.166C90.4911 34.0982 91.7176 35.3672 91.6403 36.8784H91.65L91.4085 41.7606C91.3699 42.584 91.9976 43.2912 92.8185 43.3299C93.6394 43.3687 94.3444 42.739 94.383 41.9156L94.6727 36.0453C94.7693 34.0788 93.6201 32.3352 91.9107 31.599C91.4278 31.3858 90.8967 31.2599 90.3366 31.2309C88.8879 31.1631 87.5649 31.7733 86.6764 32.7808C86.6764 32.7808 86.6667 32.7808 86.6571 32.7711C86.5991 32.0349 86.01 31.4246 85.2567 31.3955C84.4359 31.3568 83.7309 31.9864 83.6922 32.8098L83.2673 41.3538C83.2287 42.1772 83.8564 42.8843 84.6773 42.9231H84.687Z" fill="white"/>
<path id="Vector_3" d="M125.934 51.3604C125.471 50.9633 124.834 50.8955 124.312 51.1473C124.293 51.0989 124.283 51.0601 124.273 51.002C124.061 49.8105 123.472 48.6965 122.506 47.8634C120.179 45.8582 116.547 46.2651 114.403 48.7643C112.26 51.2636 112.414 54.9252 114.741 56.9305C115.707 57.7635 116.895 58.1801 118.102 58.1994C118.102 58.1994 118.122 58.1994 118.131 58.1994C117.764 58.8097 117.88 59.6137 118.44 60.0981C119.068 60.6309 120.005 60.5631 120.546 59.9334L126.099 53.4431C126.63 52.8135 126.562 51.8738 125.934 51.3314V51.3604ZM121.193 54.6056C120.121 55.8552 118.237 56.0005 116.992 54.9252C115.746 53.85 115.601 51.961 116.673 50.7114C117.745 49.4618 119.628 49.3165 120.874 50.3917C122.12 51.467 122.265 53.356 121.193 54.6056Z" fill="white"/>
<path id="Vector_4" d="M115.494 44.9089C115.494 44.9089 115.532 44.9283 115.552 44.9283C116.266 45.2092 117.077 44.9961 117.493 44.347L117.956 43.6302C118.333 43.0393 118.014 42.245 117.329 42.09C116.498 41.8962 115.638 41.9543 114.847 42.2159C114.847 42.2159 114.847 42.2062 114.847 42.1965C115.165 41.5281 114.953 40.7144 114.315 40.2979C113.62 39.8523 112.703 40.0557 112.258 40.7435C112.258 40.7532 112.249 40.7725 112.239 40.7822C112.239 40.7919 112.22 40.8016 112.21 40.8113L107.642 47.9312C107.198 48.6287 107.401 49.5489 108.086 49.9945C108.782 50.4401 109.699 50.2367 110.143 49.5489L112.413 46.0035C113.07 44.9767 114.354 44.4826 115.494 44.8992V44.9089Z" fill="white"/>
<path id="Vector_5" d="M41.7406 57.5504L39.5193 53.9759C38.8723 52.9394 38.9689 51.5638 39.838 50.7017C39.8574 50.6823 39.867 50.6726 39.8863 50.6533C40.4465 50.1205 40.601 49.2971 40.1954 48.6481L39.7415 47.9215C39.3648 47.3209 38.515 47.2822 38.0804 47.8343C37.5589 48.5027 37.2305 49.3068 37.134 50.1398H37.1146C36.6511 49.5683 35.8205 49.4133 35.1832 49.8202C34.4878 50.2561 34.2754 51.1764 34.7099 51.8835C34.7099 51.8932 34.7293 51.9029 34.7389 51.9126C34.7389 51.9223 34.7486 51.9416 34.7582 51.9513L39.2296 59.1391C39.6642 59.8365 40.5817 60.0496 41.2867 59.6137C41.982 59.1778 42.1945 58.2575 41.7599 57.5504H41.7406Z" fill="white"/>
<path id="Vector_6" d="M50.9227 52.4163C52.6997 51.7188 53.9262 50.2852 54.4477 48.6287C54.7181 47.7665 53.82 46.9916 53.0087 47.3984L51.8209 47.9893C51.5891 48.1056 51.396 48.2703 51.2511 48.4931C50.971 48.9193 50.5751 49.2874 50.0825 49.5296C48.9816 50.072 47.7165 49.8783 46.8376 49.1324L49.8894 47.6212L51.7436 46.701L53.1536 46.0035C54.0131 45.5773 54.3318 44.502 53.8296 43.6883C53.8007 43.6399 53.7717 43.6011 53.7427 43.5527C52.2555 41.2859 49.3486 40.2979 46.799 41.2084C43.1099 42.5162 41.6419 46.9141 43.8149 50.1883C45.3504 52.5035 48.3539 53.4431 50.9324 52.426L50.9227 52.4163ZM47.4364 44.163C48.5374 43.6205 49.8025 43.8142 50.6813 44.5601L45.785 46.9916C45.727 45.8388 46.3451 44.7151 47.4461 44.163H47.4364Z" fill="white"/>
<path id="Vector_7" d="M75.8607 43.1265C77.7825 43.0296 79.405 42.0512 80.419 40.6272C80.9405 39.9007 80.3417 38.9029 79.4629 39.0289L78.1109 39.2129C77.8598 39.2517 77.6184 39.3485 77.4155 39.5035C77.0099 39.8232 76.5271 40.046 75.9766 40.1138C74.7597 40.2785 73.6202 39.6876 73.0214 38.7092L76.3919 38.2442L78.4392 37.9633L79.9941 37.7502C80.9405 37.6146 81.5779 36.704 81.3654 35.774C81.3558 35.7256 81.3365 35.6675 81.3268 35.6191C80.6411 32.9939 78.1881 31.134 75.4841 31.1824C71.5728 31.2599 68.7915 34.9603 69.8151 38.748C70.5394 41.4312 73.0987 43.2718 75.8607 43.1265ZM75.1557 34.1854C76.3629 34.0207 77.5025 34.6019 78.1109 35.59L72.6931 36.3359C73.0021 35.2219 73.9485 34.3501 75.1557 34.1854Z" fill="white"/>
<path id="Vector_8" d="M99.9542 45.4029C101.664 46.2651 103.556 46.236 105.131 45.5095C105.942 45.1317 105.923 43.9692 105.092 43.6302L103.837 43.1265C103.595 43.0296 103.344 43.0005 103.083 43.0296C102.581 43.1071 102.04 43.0587 101.538 42.8456C100.398 42.3903 99.7031 41.3053 99.6645 40.1526L102.822 41.4216L104.744 42.1965L106.203 42.7874C107.091 43.1458 108.095 42.6712 108.366 41.7509C108.385 41.7025 108.395 41.6444 108.414 41.5959C109.109 38.9708 107.902 36.1422 105.536 34.8441C102.108 32.9648 97.8586 34.7957 96.8735 38.593C96.1782 41.2763 97.4819 44.1533 99.9542 45.4029ZM103.759 37.2949C104.889 37.7502 105.594 38.8255 105.633 39.9782L100.563 37.9343C101.384 37.1302 102.629 36.8299 103.769 37.2949H103.759Z" fill="white"/>
<path id="Vector_9" d="M69.2343 45.0154L66.0183 35.125C65.7576 34.3113 64.8788 33.8657 64.0675 34.1369C63.4977 34.321 63.1211 34.815 63.0245 35.3672C62.0105 35.1347 60.9289 35.1638 59.8666 35.5125C56.7375 36.5393 55.0282 39.9104 56.0422 43.049C57.0659 46.1876 60.4267 47.9022 63.5557 46.8753C64.589 46.5363 65.4679 45.9357 66.1439 45.1801L66.395 45.9551C66.9068 47.5244 66.0473 49.2196 64.4828 49.733C63.546 50.043 62.5706 49.8589 61.827 49.3261C61.4504 49.0549 60.9675 48.9871 60.5233 49.1324L59.8376 49.3552C59.0457 49.6168 58.8332 50.6242 59.432 51.2054C60.9675 52.6778 63.237 53.2784 65.4003 52.5713C68.5293 51.5445 70.2386 48.1734 69.2246 45.0348L69.2343 45.0154ZM62.6479 44.037C61.0834 44.5505 59.3933 43.6883 58.8815 42.119C58.3696 40.5497 59.2292 38.8545 60.7937 38.3411C62.3582 37.8277 64.0482 38.6898 64.5601 40.2591C65.0719 41.8284 64.2124 43.5236 62.6479 44.037Z" fill="white"/>
<path id="Vector_10" d="M55.3738 123.112C55.0841 122.395 54.5916 121.775 53.8962 121.252C52.9691 120.555 51.9648 120.361 50.8928 120.651L51.6171 119.673L49.1351 117.813L41.4961 128.081L43.9781 129.941L46.7208 126.251C46.7304 126.793 46.8656 127.306 47.1167 127.771C47.3678 128.236 47.7251 128.653 48.1984 129.011C48.884 129.525 49.6083 129.825 50.3713 129.893C51.1342 129.97 51.8682 129.825 52.5828 129.457C53.2975 129.089 53.9349 128.527 54.5047 127.762C55.0841 126.987 55.4414 126.202 55.5863 125.388C55.7312 124.575 55.6635 123.809 55.3738 123.093V123.112ZM52.0517 125.853C51.6364 126.415 51.1439 126.754 50.5934 126.871C50.0333 126.987 49.5118 126.87 49.0289 126.502C48.5557 126.144 48.2949 125.689 48.2563 125.117C48.2177 124.546 48.4012 123.984 48.8164 123.432C49.2317 122.87 49.7146 122.531 50.2747 122.405C50.8348 122.279 51.3467 122.395 51.8199 122.744C52.3028 123.102 52.5635 123.577 52.6118 124.148C52.6504 124.72 52.4669 125.292 52.0517 125.844V125.853Z" fill="white"/>
<path id="Vector_11" d="M62.3979 125.921C61.7026 125.631 60.9976 125.417 60.2926 125.301C59.5779 125.185 58.8053 125.137 57.9652 125.156L57.9362 127.413C58.4867 127.384 59.0178 127.413 59.52 127.481C60.0222 127.558 60.4568 127.675 60.8238 127.82C61.3549 128.043 61.7219 128.333 61.9054 128.672C62.0985 129.021 62.0985 129.399 61.9247 129.815L61.8861 129.912L59.6262 128.953C58.5543 128.508 57.6368 128.401 56.8739 128.614C56.1109 128.837 55.5508 129.36 55.2031 130.183C54.8555 130.997 54.8458 131.762 55.1645 132.489C55.4832 133.206 56.1013 133.768 57.0187 134.155C58.1776 134.649 59.211 134.649 60.0994 134.155L59.6842 135.133L62.4848 136.325L64.8702 130.668C65.2758 129.67 65.2662 128.75 64.8412 127.917C64.4163 127.084 63.6051 126.415 62.4076 125.911L62.3979 125.921ZM60.9203 132.208C60.6982 132.508 60.3795 132.692 59.9739 132.76C59.5683 132.828 59.1434 132.78 58.7184 132.595C58.3514 132.441 58.11 132.237 57.9748 131.966C57.8396 131.704 57.8396 131.423 57.9652 131.123C58.2162 130.522 58.7474 130.397 59.549 130.736L61.2487 131.452L60.93 132.208H60.9203Z" fill="white"/>
<path id="Vector_12" d="M72.0346 129.224C71.4648 129.399 70.9723 129.718 70.5377 130.193L70.866 128.653L67.8433 128.004L65.8828 137.226L68.9056 137.875L69.9003 133.167C70.0934 132.605 70.4411 132.198 70.9626 131.956C71.4745 131.714 72.0925 131.666 72.8072 131.821C73.01 131.869 73.1645 131.908 73.2611 131.937L73.8502 129.157C73.2031 129.021 72.5947 129.04 72.0346 129.215V129.224Z" fill="white"/>
<path id="Vector_13" d="M80.3976 136.596C79.8568 136.596 79.5864 136.248 79.5961 135.589L79.654 132.034L82.0877 132.072L82.1263 130.019L79.6926 129.98L79.7313 127.365L76.6505 127.316L76.6119 129.932L75.3082 129.912L75.2695 131.966L76.5733 131.985L76.5057 136.034C76.4864 136.974 76.7664 137.72 77.3266 138.262C77.8964 138.805 78.64 139.086 79.5671 139.105C80.0306 139.105 80.4942 139.066 80.9481 138.96C81.402 138.863 81.8076 138.708 82.1553 138.514L81.6048 136.306C81.1412 136.509 80.7356 136.606 80.3976 136.596Z" fill="white"/>
<path id="Vector_14" d="M92.2484 128.721C91.5145 128.207 90.6356 128.043 89.6313 128.246C88.9649 128.382 88.3951 128.634 87.9316 129.011C87.468 129.389 87.1203 129.873 86.8982 130.474L86.5988 128.973L83.5664 129.573L85.4013 138.824L88.4338 138.214L87.468 133.322C87.4197 132.789 87.526 132.324 87.7867 131.946C88.0475 131.559 88.4241 131.317 88.9263 131.201C89.4092 131.104 89.8148 131.181 90.1624 131.423C90.5101 131.666 90.7322 132.053 90.8385 132.576L91.8235 137.536L94.8366 136.935L93.6777 131.104C93.4653 130.019 92.9921 129.224 92.2581 128.701L92.2484 128.721Z" fill="white"/>
<path id="Vector_15" d="M102.609 131.007C102.339 131.317 102.01 131.549 101.643 131.724C101.16 131.946 100.687 132.014 100.233 131.908C99.7794 131.811 99.3641 131.54 99.0068 131.123L104.936 128.362C104.898 128.236 104.821 128.072 104.714 127.849C104.048 126.415 103.159 125.456 102.03 124.982C100.9 124.507 99.6441 124.594 98.2535 125.233C97.3746 125.64 96.6793 126.192 96.1771 126.861C95.6749 127.539 95.3852 128.294 95.3273 129.137C95.2693 129.98 95.4432 130.832 95.8488 131.714C96.2447 132.576 96.7759 133.254 97.4423 133.739C98.1086 134.223 98.8619 134.484 99.7117 134.533C100.562 134.572 101.44 134.378 102.358 133.961C103.15 133.593 103.797 133.138 104.299 132.586C104.801 132.034 105.168 131.414 105.381 130.716L103.237 129.922C103.082 130.338 102.87 130.697 102.599 131.007H102.609ZM98.2921 128.169C98.4563 127.733 98.7557 127.413 99.1999 127.21C99.6731 126.987 100.127 126.958 100.552 127.132C100.977 127.297 101.305 127.626 101.537 128.13L98.2535 129.651C98.1183 129.099 98.1279 128.604 98.2921 128.169Z" fill="white"/>
<path id="Vector_16" d="M108.59 122.85C108.754 122.308 109.131 121.824 109.73 121.388C109.894 121.271 110.029 121.175 110.116 121.126L108.455 118.821C107.924 119.208 107.528 119.673 107.277 120.206C107.026 120.748 106.929 121.33 106.987 121.959L106.07 120.69L103.559 122.511L109.073 130.154L111.584 128.333L108.774 124.429C108.484 123.906 108.426 123.374 108.59 122.831V122.85Z" fill="white"/>
<path id="Vector_17" d="M57.2289 101.122C57.6538 102.362 59.4791 107.148 60.2324 108.213C61.1884 109.57 65.0707 112.65 66.3165 113.764C68.1901 115.43 70.2761 116.719 72.6325 117.571C73.7141 117.958 74.8344 118.23 75.9643 118.414C77.4033 118.646 78.8519 118.666 80.3102 118.608C81.836 118.549 83.3426 118.394 84.8105 117.968C86.8869 117.358 88.6445 116.234 90.0931 114.616C90.6822 113.958 91.339 113.367 91.9281 112.718C92.4109 112.185 92.8648 111.623 92.9904 110.887C93.058 110.519 92.9904 110.16 92.6813 109.899C92.4302 109.686 92.1405 109.57 91.8315 109.725C91.4548 109.918 91.0685 110.122 90.7595 110.403C90.1607 110.955 89.6006 111.555 89.0695 112.166C88.3355 113.018 87.4277 113.619 86.4716 114.181C85.3803 114.82 84.2214 115.314 83.0142 115.682C81.8843 116.031 80.7158 116.099 79.5472 115.992C78.0986 115.866 76.6597 115.701 75.2207 115.537C74.3419 115.43 73.5113 115.14 72.6904 114.81C70.0733 113.725 67.7072 112.233 65.6309 110.296C65.1866 109.88 62.328 108.194 61.9514 107.719C61.8258 107.555 56.746 99.7566 57.2096 101.132L57.2289 101.122Z" fill="white"/>
<path id="Vector_18" d="M97.6095 88.0257C97.059 85.788 96.296 83.6278 95.34 81.5354C94.4804 79.6561 93.4761 77.8446 92.2882 76.1397C91.0714 74.4058 89.7 72.7977 88.0003 71.5094C86.7255 70.5407 85.3445 69.8044 83.7607 69.5235C82.1189 69.2329 80.5158 69.4363 78.9899 70.1435C77.6475 70.7635 76.3148 71.4125 74.9724 72.0421C73.321 72.8171 72.0076 74.0183 70.7908 75.3551C69.6608 76.595 68.7337 77.9609 68.0384 79.4914C67.2851 81.1382 66.8409 82.8625 66.6381 84.6546C66.3966 86.7179 66.4063 88.7909 66.5705 90.8543C66.6767 92.2686 67.092 93.6247 67.5941 94.9519C67.9804 95.9593 68.444 96.928 69.0234 97.8289C69.8926 99.1657 70.9356 100.328 72.3939 101.055C73.6494 101.684 74.9435 101.791 76.2858 101.413C77.9566 100.948 79.3183 99.9794 80.4482 98.6717C81.8582 97.0539 82.737 95.1747 83.1812 93.0823C83.4034 92.0458 83.413 90.9996 83.3647 89.9534C83.3068 88.7813 83.1812 87.6188 82.8143 86.4951C82.7467 86.2917 82.6597 86.098 82.5535 85.9139C82.3411 85.5652 82.032 85.5458 81.8485 85.9042C81.665 86.2723 81.5009 86.6695 81.4333 87.0763C81.327 87.7351 81.2498 88.4035 81.2594 89.0719C81.2787 91.5324 80.6317 93.8088 79.3859 95.9109C78.7195 97.0249 77.8986 98.013 76.7204 98.6523C75.8126 99.1463 74.8855 99.1948 73.9294 98.8945C72.2201 98.3617 71.0225 97.2283 70.1727 95.6784C69.1297 93.7797 68.7048 91.7261 68.5599 89.5853C68.444 87.9579 68.5599 86.3401 68.8303 84.7321C69.12 83.0756 69.7671 81.5644 70.5879 80.1211C71.0129 79.3655 71.5054 78.639 71.9979 77.9221C72.7126 76.8856 73.6687 76.101 74.6441 75.326C75.378 74.7351 76.2279 74.5123 77.126 74.3573C78.3525 74.1539 79.5597 74.1345 80.7572 74.5026C81.6361 74.7739 82.4087 75.2582 83.133 75.8104C84.8037 77.0794 85.9529 78.7262 86.7352 80.6539C87.5561 82.6785 87.9617 84.7902 88.0776 86.9504C88.1548 88.4035 88.2031 89.8662 88.1645 91.3192C88.1065 93.4891 88.0003 95.659 87.8554 97.8192C87.7685 99.156 87.4498 100.444 86.7159 101.597C86.2523 102.324 85.5763 102.798 84.9003 103.292C83.2585 104.494 81.6457 105.733 80.1681 107.138C79.6273 107.652 79.0962 108.194 78.507 108.64C77.6379 109.308 76.5949 109.502 75.5229 109.531C73.8811 109.56 72.2683 109.289 70.7135 108.785C69.854 108.504 69.0428 108.029 68.2605 107.555C67.1789 106.906 66.1359 106.198 65.1991 105.346C64.0982 104.348 63.2483 103.166 62.5819 101.849C61.7804 100.28 61.2106 98.6329 60.8243 96.928C60.3607 94.8841 60.1869 92.8014 60.2062 90.6993C60.2255 88.2388 60.4766 85.788 60.805 83.3565C61.0754 81.3029 61.5486 79.3074 62.3212 77.3797C63.4028 74.6576 65.0446 72.3134 67.1596 70.2888C68.8013 68.7195 70.6749 67.528 72.7705 66.6659C74.1709 66.0943 75.5712 65.5325 76.9812 64.9997C78.0628 64.5928 79.1444 64.1666 80.2647 63.876C82.7756 63.2173 85.3155 63.1785 87.8554 63.7598C89.9125 64.2344 91.786 65.1159 93.4857 66.3656C94.1714 66.8693 94.8764 67.3536 95.7166 67.5764C96.325 67.7411 96.5954 67.4699 96.4312 66.8499C96.1995 65.9975 95.6393 65.3484 95.0502 64.7188C94.1424 63.7598 93.0125 63.1495 91.844 62.607C89.8159 61.6577 87.6816 61.2121 85.4507 61.1055C84.1084 61.0377 82.766 61.0087 81.4333 61.1927C80.1005 61.3768 78.7968 61.7255 77.522 62.1614C75.2042 62.9654 73.012 64.0504 70.839 65.1741C69.4773 65.8812 68.0963 66.5787 66.7926 67.3827C65.1508 68.3998 63.8374 69.7851 62.7268 71.364C61.2106 73.5146 60.2062 75.8976 59.4722 78.4065C58.8445 80.557 58.4196 82.7559 58.2071 84.984C58.0236 86.931 57.8691 88.8781 57.7822 90.8349C57.7146 92.4042 57.7822 93.9735 58.0526 95.5234C58.2651 96.773 58.5741 98.013 58.8638 99.4079C59.1825 100.406 62.3308 105.908 64.7162 107.913C65.3729 108.465 66.1938 108.756 66.9278 109.192C68.0867 109.87 69.2166 110.625 70.501 111.042C71.3702 111.333 72.2683 111.536 73.1665 111.72C74.8855 112.069 76.6142 112.427 78.3525 112.689C80.1392 112.96 81.9548 112.989 83.7414 112.611C85.5377 112.233 86.88 111.216 87.8168 109.637C88.5701 108.378 89.0047 107.002 89.2944 105.578C89.6904 103.641 89.8159 101.665 89.9994 99.6985C90.1443 98.1486 90.3567 96.5987 90.4726 95.0487C90.6271 93.0435 90.6947 91.0286 90.5885 89.0137C90.5402 88.2 90.5016 87.3863 90.4533 86.5629C90.4243 86.0205 90.5595 85.5652 91.1197 85.3424C91.5929 85.1583 91.7088 84.7612 91.7474 84.3156C91.8247 83.2694 91.4384 82.3491 90.9265 81.4676C89.6228 79.2686 87.981 77.3409 86.1654 75.5391C85.5666 74.9482 84.8134 74.5608 84.0601 74.2023C83.046 73.7083 82.0127 73.2433 80.989 72.7687C80.7669 72.6621 80.5448 72.5459 80.3323 72.4102C80.1102 72.2746 80.1005 72.1196 80.3323 71.9937C80.5255 71.8871 80.7669 71.8193 80.989 71.7903C81.7423 71.6934 82.4859 71.829 83.2199 72.0034C84.2146 72.2456 85.1996 72.5555 86.0109 73.1949C86.7642 73.7858 87.4595 74.4348 88.1645 75.0839C89.729 76.4982 90.8879 78.2418 91.9116 80.063C92.5779 81.2448 93.196 82.446 93.7755 83.6665C94.1231 84.4027 94.3549 85.1971 94.3452 86.0301C94.3452 86.3401 95.4076 91.1642 95.0213 93.9832C94.8088 95.5525 92.1434 101.403 92.0371 102.217C91.9212 103.079 91.3997 104.949 91.3032 105.821C91.2742 106.082 91.3128 106.363 91.3804 106.625C91.5639 107.342 92.4427 107.564 93.0222 107.051C93.4761 106.644 93.7079 106.102 93.8624 105.54C94.0459 104.871 94.1618 104.174 94.3646 103.515C94.6253 102.672 94.9054 101.839 95.2434 101.026C95.9677 99.2335 96.7499 97.4705 97.3004 95.6106C98.0537 93.1016 98.2565 90.5733 97.6288 87.9966L97.6095 88.0257ZM86.2813 106.654C86.0785 108.116 84.852 109.54 83.4903 109.899C83.0074 110.025 82.5149 110.005 82.1672 109.812C81.5395 109.453 81.4139 109.037 81.8099 108.494C81.8968 108.378 81.9837 108.252 82.09 108.146C82.9108 107.303 83.8476 106.615 84.8327 105.985C85.1803 105.763 85.5666 105.588 85.9433 105.443C86.2137 105.346 86.3199 105.443 86.3296 105.733C86.3296 106.034 86.3199 106.344 86.2716 106.644L86.2813 106.654Z" fill="white"/>
<path id="Vector_19" d="M63.177 96.5696C63.7178 98.6814 64.4325 100.483 65.4658 102.149C67.3008 105.123 69.8503 107.157 73.2787 107.961C74.5921 108.271 75.9635 108.301 77.3059 108.029C77.4894 107.991 77.6632 107.923 77.8274 107.845C78.204 107.661 78.2909 107.332 78.0978 106.954C77.808 106.392 77.3735 106.034 76.7457 105.956C75.8959 105.84 75.0267 105.811 74.1865 105.646C73.0373 105.423 71.8977 105.123 70.7678 104.833C70.5939 104.784 70.4008 104.668 70.2849 104.523C70.198 104.416 70.1787 104.203 70.227 104.067C70.2559 103.98 70.4394 103.893 70.5553 103.893C70.874 103.912 71.2024 103.961 71.5211 104.019C73.2497 104.358 74.9688 104.736 76.7361 104.794C78.0302 104.842 79.3146 104.745 80.5314 104.261C81.2751 103.97 81.9028 103.496 82.4629 102.934C83.1486 102.246 83.7763 101.51 84.2978 100.677C84.9545 99.6307 85.4664 98.5167 85.8623 97.3445C86.3356 95.9496 86.6349 94.5353 86.7412 93.0726C86.8957 91.0383 86.8571 89.0137 86.577 86.9892C86.2486 84.6546 85.5533 82.4363 84.2109 80.4698C82.9844 78.668 81.4296 77.2247 79.4691 76.2366C77.7308 75.3551 75.9442 75.791 74.7466 76.8856C74.1769 77.399 74.0223 78.1062 74.2927 78.7843C74.4086 79.0943 74.6018 79.2299 74.9205 79.1427C75.3454 79.0168 75.78 78.8908 76.1566 78.668C77.3735 77.9609 78.4937 78.174 79.585 78.9296C80.5121 79.5786 81.2364 80.4214 81.8931 81.3223C83.1679 83.0659 83.8536 85.0517 84.1916 87.1732C84.5296 89.3528 84.6165 91.5323 84.2978 93.7119C83.9309 96.2693 83.081 98.6329 81.3233 100.59C80.5218 101.481 79.6236 102.236 78.4648 102.634C77.6825 102.895 76.8809 102.973 76.0794 102.827C74.8915 102.605 73.7036 102.343 72.5351 102.033C71.5983 101.791 70.6519 101.675 69.6861 101.597C68.9618 101.539 68.2375 101.442 67.6774 100.9C67.4649 100.687 67.2621 100.444 67.1173 100.173C66.0743 98.2261 65.3886 96.153 65.0216 93.9735C64.6836 91.9973 64.5677 90.0018 64.645 88.0063C64.7512 85.2746 65.1858 82.6009 65.9004 79.9661C66.7406 76.8662 68.5176 74.3767 70.8933 72.294C72.7958 70.6375 74.9494 69.417 77.3252 68.5742C79.5464 67.7895 81.8255 67.4117 84.1723 67.528C86.1907 67.6249 88.1125 68.1189 89.9378 69.0295C91.7727 69.9497 93.5303 70.9862 95.1625 72.2552C96.6497 73.408 97.9631 74.7351 99.1317 76.2075C99.5856 76.7791 100.136 77.2634 100.667 77.7671C100.86 77.9512 101.14 78.1352 101.42 77.9609C101.71 77.7865 101.652 77.4572 101.614 77.1762C101.449 75.9847 100.918 74.9482 100.252 73.9795C99.2282 72.4684 97.8279 71.3253 96.4372 70.2016C94.7375 68.826 92.893 67.6636 90.9035 66.753C88.9527 65.8618 86.9343 65.2419 84.7904 64.9803C82.2891 64.6703 79.8844 65.0384 77.5183 65.8715C75.7317 66.5012 74.0416 67.3536 72.4482 68.3804C70.0145 69.9497 67.8705 71.8387 66.0453 74.0958C64.6836 75.7813 63.7758 77.6993 63.235 79.7917C62.5976 82.2425 62.3272 84.7418 62.3079 87.2604C62.2982 88.6359 62.3079 90.0115 62.3755 91.3774C62.4624 93.2082 62.7328 95.0197 63.1384 96.5696H63.177Z" fill="white"/>
<path id="Vector_20" d="M66.8295 61.6867C67.0323 61.3961 67.7277 61.5027 67.9981 61.2702C69.3211 60.1368 70.8084 59.2456 72.3536 58.4513C73.4642 57.8701 74.5844 57.3082 75.7627 56.8917C77.0085 56.4558 78.3026 56.1167 79.6063 55.8939C81.1032 55.6324 82.6387 55.5549 84.155 55.3708C84.5413 55.3224 84.9179 55.2158 85.2849 55.1093C85.5456 55.0318 85.7581 54.8768 85.7967 54.5862C85.8354 54.3053 85.6132 54.1406 85.4201 54.0147C84.8696 53.6369 84.2322 53.5012 83.5852 53.4237C82.6677 53.3172 81.7599 53.3656 80.8521 53.5109C79.7029 53.695 78.5537 53.8693 77.3948 54.0437C77.3948 54.0728 77.3948 54.0921 77.4044 54.1212C74.7486 54.7993 72.2956 55.9424 70.0358 57.4826C68.7996 58.3157 67.5925 59.1972 66.4336 60.1271C65.0815 61.2121 62.6479 63.0429 64.2413 63.0914C65.7865 62.7426 66.7716 61.7836 66.8392 61.6867H66.8295Z" fill="white"/>
<path id="Vector_21" d="M90.4817 59.6331C90.1147 58.9647 89.5063 58.5482 88.8883 58.1607C87.6907 57.3954 86.3387 57.1339 84.948 57.0273C82.3598 56.8433 79.8489 57.2792 77.3862 58.0251C75.8604 58.4901 74.3442 58.9938 72.9245 59.7203C71.8236 60.2821 70.7419 60.9021 69.6603 61.493C69.0712 61.8127 68.0185 62.423 67.893 62.4327C67.8254 62.4617 63.5375 65.2225 63.1415 66.0459C62.6297 67.1212 59.9546 69.0198 59.211 69.9691C58.1873 71.2769 57.4823 72.7784 56.8932 74.3283C55.6763 77.554 54.8072 80.867 54.3146 84.2865C53.9863 86.5726 53.8125 88.8781 53.8704 91.1933C53.8994 92.3558 53.8897 93.5182 54.1698 94.6516C54.5078 96.0368 54.9713 97.3736 55.8502 98.5361C55.9467 98.662 56.053 98.7782 56.1785 98.8751C56.4779 99.0979 56.7483 99.0107 56.8256 98.6426C56.8932 98.323 56.9608 97.9742 56.9318 97.6545C56.8256 96.5115 56.7 95.3684 56.5358 94.2254C56.2365 92.1911 56.1495 90.1471 56.2654 88.0838C56.391 85.8461 56.758 83.6472 57.2891 81.4676C57.9169 78.8812 58.7957 76.3722 59.7518 73.9021C60.3602 72.3328 61.3163 70.996 62.4559 69.7851C63.75 68.4095 65.1986 67.2083 66.6955 66.0653C67.7095 65.3 68.7139 64.525 69.7376 63.7888C70.7709 63.0526 71.9105 62.4908 73.0694 61.9677C74.9429 61.1249 76.8937 60.5534 78.9121 60.2047C81.3072 59.7881 83.7312 59.6428 86.1552 59.8947C87.0823 59.9915 87.9998 60.195 88.9172 60.3306C89.3132 60.3887 89.7285 60.4178 90.1244 60.3887C90.5976 60.35 90.7232 60.0593 90.501 59.6525L90.4817 59.6331Z" fill="white"/>
<path id="Vector_22" d="M101.904 84.393C101.411 83.2306 100.987 82.0391 100.446 80.9057C99.7987 79.5592 98.9102 78.3484 98.0024 77.1569C97.3167 76.2463 96.631 75.3357 95.9357 74.4348C95.1051 73.3789 94.1394 72.4587 92.9709 71.7806C92.7198 71.6353 92.43 71.519 92.1403 71.4803C91.474 71.3931 91.078 71.8581 91.1746 72.5265C91.2422 73.0399 91.5512 73.408 91.8603 73.7761C92.8453 74.9579 93.869 76.1107 94.8251 77.3119C95.9453 78.7165 96.9594 80.1986 97.6257 81.8938C98.1955 83.3565 98.8426 84.7902 99.393 86.2529C100.32 88.7231 100.562 91.2611 99.7697 93.8185C99.4317 94.8937 99.0164 95.9496 98.6011 97.0055C97.5581 99.6501 96.7179 102.343 96.4186 105.191C96.3027 106.305 96.0033 107.371 95.6749 108.436C95.4721 109.075 95.279 109.734 95.3756 110.432C95.4335 110.868 95.6267 110.955 96.0323 110.751C96.5924 110.461 96.9787 109.976 97.3457 109.492C98.2245 108.33 98.9295 107.07 99.2868 105.637C99.48 104.852 99.451 104.058 99.4317 103.254C99.4027 101.917 99.3448 100.58 99.5765 99.2626C99.8083 97.9355 100.301 96.7149 101.112 95.63C101.199 95.5137 101.373 95.3684 101.469 95.3878C101.595 95.4265 104.029 89.4012 101.904 84.3834V84.393Z" fill="white"/>
<path id="Vector_23" d="M78.8156 93.741C78.41 94.6322 77.9271 95.475 77.2318 96.1821C76.0053 97.4027 74.6146 97.6352 73.0694 96.8505C72.2872 96.4534 71.8236 95.7268 71.447 94.9616C70.8192 93.7216 70.4716 92.3945 70.2494 91.0286C69.9114 89.0331 69.8438 87.0279 70.0853 85.013C70.2012 84.0153 70.4329 83.0369 70.8192 82.1069C71.0896 81.4579 71.4663 80.8767 72.0361 80.4408C72.9632 79.7336 74.4697 80.1114 75.0782 80.6345C75.8314 81.2738 76.0632 82.136 76.1598 83.0562C76.3047 84.4027 76.1115 85.7395 75.9763 87.0764C75.8508 88.2775 75.7445 89.469 75.6769 90.6799C75.6383 91.2708 75.7155 91.8714 75.9763 92.4236C76.1405 92.7723 76.3143 92.811 76.5751 92.5108C76.7296 92.3364 76.8455 92.133 76.9517 91.9295C77.5794 90.709 77.8209 89.3915 77.7629 88.0451C77.6953 86.6695 77.5311 85.2939 77.4056 83.9184C77.3477 83.2306 77.2801 82.5332 77.2028 81.8454C77.1545 81.4482 77.5118 81.1285 77.8885 80.9542C78.2168 80.8089 78.5162 80.9154 78.7673 81.1673C79.2115 81.6129 79.4143 82.1747 79.6075 82.7463C79.9262 83.6665 80.0711 84.6159 80.0711 85.5942C80.0711 86.8342 80.1387 88.0838 80.0711 89.3237C79.9745 90.8737 79.4723 92.3364 78.8349 93.7507L78.8156 93.741ZM72.6638 83.0466C72.5769 83.3081 72.4803 83.5697 72.4031 83.8506C72.0554 85.1099 71.9492 86.3983 71.9298 87.706C71.9105 89.7596 72.2775 91.7358 73.1756 93.5957C73.4267 94.1188 73.6971 94.6516 74.18 95.01C74.3056 95.0972 74.518 95.1553 74.6532 95.1166C74.8464 95.0584 74.8367 94.8356 74.7788 94.6613C74.6629 94.3125 74.547 93.9541 74.4021 93.6151C73.9676 92.5786 73.5909 91.5227 73.4267 90.399C73.2239 89.0331 73.4267 87.6963 73.7551 86.3789C73.9869 85.4392 74.238 84.5093 74.2283 83.5309C74.2283 83.2597 74.18 82.9691 74.0738 82.7269C73.8613 82.2619 73.3302 82.1941 72.9922 82.5719C72.8666 82.7075 72.7893 82.8819 72.6735 83.0466H72.6638Z" fill="white"/>
</g>
<defs>
<clipPath id="clip0_3465_20396">
<rect width="159" height="160" fill="white"/>
</clipPath>
</defs>
</svg>
