<svg width="477" height="699" viewBox="0 0 477 699" fill="none" xmlns="http://www.w3.org/2000/svg">
<path d="M475.991 468.726C466.381 452.033 456.897 435.273 447.442 418.491C445.877 415.709 444.52 412.755 441.619 412.054C440.956 411.48 440.195 411.04 439.502 410.958C432.217 410.055 424.918 409.115 418.021 413.121C415.65 414.501 413.324 415.067 411.124 414.575C410.901 414.426 410.684 414.277 410.491 414.113C409.186 413.031 408.082 412.002 406.8 411.957C406.599 411.748 406.405 411.532 406.203 411.293C405.667 410.652 404.749 410.331 403.78 410.01C403.765 397.271 403.758 384.531 403.802 371.792C403.802 370.844 403.952 369.457 404.556 369.039C408.231 366.481 407.739 363.87 405.077 361.483C406.106 358.992 406.994 356.844 408.157 354.032C407.18 354.271 406.449 354.353 405.89 354.48C405.823 353.928 405.741 353.294 405.704 352.548C403.832 353.883 402.513 354.756 401.267 355.725C394.565 360.961 387.921 366.272 381.159 371.434C379.809 372.463 378.049 373.552 376.454 373.582C366.172 373.776 355.89 373.679 345.787 373.679C345.758 373.403 345.743 373.104 345.75 372.761C345.78 371.128 344.699 369.464 344.065 367.831C343.536 366.481 342.604 365.198 342.44 363.818C342.007 360.29 339.196 356.814 335.938 356.21C335.409 356.113 334.879 356.001 334.342 355.889C328.296 353.771 322.115 352.115 315.494 352.831C313.466 353.048 311.385 352.861 308.977 352.861C309.395 351.75 309.477 351.28 309.723 350.922C310.573 349.669 311.318 348.513 311.974 347.439C312.131 347.289 312.273 347.125 312.429 346.976C316.426 343.209 317.171 339.547 314.636 336.153C313.861 334.199 312.265 332.208 309.797 329.791C309.7 329.702 309.603 329.612 309.507 329.523C309.126 329.045 308.753 328.568 308.351 328.105C307.642 327.285 306.524 326.815 305.6 326.174C305.346 325.965 305.093 325.748 304.846 325.532C303.594 324.212 302.572 322.66 301.551 321.139C301.551 321.131 301.543 321.124 301.536 321.117C301.402 317.581 298.68 316.127 296.16 314.172C294.975 313.247 294.087 311.838 293.342 310.376C292.671 308.929 292.156 307.37 291.694 305.707C291.381 304.58 290.695 303.559 289.882 302.574C289.122 300.717 288.339 298.763 287.467 296.652C288.361 294.988 289.524 292.258 286.087 289.827C283.425 287.947 280.913 285.859 278.803 284.225C279.131 281.607 279.392 279.504 279.653 277.415C282.322 276.483 284.991 275.543 287.161 274.783C287.094 274.536 287.019 274.298 286.952 274.059C288.056 273.149 287.728 271.844 286.065 269.509C285.692 268.987 285.394 268.465 285.148 267.928C285.058 267.391 285.014 266.854 285.036 266.332C285.357 259.365 289.756 254.778 295.444 251.466C298.822 249.505 302.505 248.05 306.099 246.491C308.731 245.35 309.551 243.553 309.447 241.464C309.738 240.256 309.693 238.913 309.26 237.511C308.463 234.945 307.247 232.506 306.472 229.94C306.144 228.844 306.077 227.36 306.561 226.382C307.225 225.055 307.978 223.772 308.739 222.489C311.617 219.073 313.682 215.329 314.972 211.263C315.322 210.488 315.635 209.697 315.896 208.892C317.089 205.192 317.537 201.261 318.282 197.427C318.409 196.771 318.648 196.04 318.618 195.406C319.035 194.884 319.498 194.407 320.012 194.034C322.129 192.512 324.284 191.028 326.447 189.566C327.11 189.335 327.736 189.044 328.281 188.648C329.041 188.089 329.764 187.485 330.48 186.866C331.531 186.165 332.583 185.464 333.642 184.762C335.379 183.606 337.146 182.495 338.973 181.48C343.178 179.146 347.726 177.296 351.566 174.469C354.623 172.217 357.501 170.964 361.318 170.874C365.874 170.77 370.929 170.949 374.791 169.032C378.042 167.413 380.838 165.698 384.469 166.272C388.764 166.943 391.44 165.31 393.513 161.476C394.475 159.693 397.905 157.18 398.449 157.553C402.654 160.439 406.941 157.859 411.132 158.045C411.624 159.552 411.669 161.178 412.504 161.931C413.928 163.214 415.747 164.348 417.581 164.773C419.11 165.131 420.899 164.378 423.606 163.952C424.597 162.684 425.328 161.737 425.79 160.939C426.387 161.163 426.976 161.394 427.572 161.618C427.93 160.081 428.959 158.284 428.489 157.06C427.841 155.352 426.327 153.637 424.724 152.719C422.331 151.34 420.742 149.81 419.833 147.066C418.536 143.172 416.112 142.053 412.511 143.09C411.691 142.978 410.774 143.157 409.7 143.724C409.536 143.814 409.372 143.888 409.208 143.963C408.455 143.97 407.68 143.843 407.046 143.597C405.145 142.859 403.392 141.718 401.245 140.509C402.61 138.264 403.937 136.079 405.271 133.908C408.328 128.941 411.385 123.973 414.442 118.998C417.79 113.807 421.138 108.616 424.463 103.402C425.85 101.231 425.134 97.5393 423.531 97.8973C419.162 98.8819 417.932 94.511 414.793 93.3847C411.035 92.0422 407.762 89.2899 404.377 89.8567C400.537 86.9776 397.361 84.3372 393.908 82.1369C392.708 81.3761 390.568 81.1076 389.278 81.6297C384.462 83.5988 379.817 85.9856 375.649 87.9622C372.286 83.3154 368.401 81.5253 364.278 80.5034C362.534 80.0708 360.431 78.1017 358.425 80.6526C358.067 81.1076 357.71 81.5626 357.344 82.0101C356.442 82.7261 355.413 83.5466 354.444 84.4342C354.123 84.7251 353.803 85.1055 353.475 85.5083C352.274 86.1124 350.88 86.3809 349.157 86.0826C348.867 86.0304 348.516 86.4257 348.181 86.5749C345.243 87.8876 342.335 89.2675 339.345 90.4385C338.659 90.707 337.675 90.2893 336.848 90.1029C333.164 89.2899 329.981 85.0309 325.649 88.5216C325.462 88.6708 324.776 88.0592 324.322 88.0592C323.114 88.0741 321.727 87.8876 320.728 88.4023C318.372 89.6031 316.716 89.7598 315.263 87.0448C314.8 86.1796 313.063 86.0229 311.937 85.4859C310.781 84.9339 309.193 84.5759 308.582 83.7107C310.26 79.4368 310.103 73.0819 308.291 69.6583C308.284 69.6136 308.269 69.5688 308.261 69.5241C307.24 65.1159 306.681 64.7132 302.11 65.28C299.202 65.6455 296.854 64.0493 295.996 61.7445C296.339 60.7078 296.242 60.0141 295.698 59.0818C295.728 58.8132 295.78 58.5522 295.847 58.2762C296.205 56.9038 295.668 55.1883 295.184 53.7487C294.706 52.3092 293.677 51.0561 293.081 49.6464C291.925 46.909 287.004 43.1647 284.835 43.933C282.628 44.7087 281.889 43.4631 280.525 42.2547C277.811 39.8381 275.321 37.0112 271.212 36.5711C269.49 36.3847 267.253 35.9893 266.128 34.7363C266.232 33.692 266.441 32.3867 266.493 31.2232C266.269 31.0143 265.859 30.7607 265.427 30.4624C265.024 27.2327 262.824 24.8161 261.796 22.0339C259.626 16.1937 254.064 12.9044 248.203 10.4654C247.905 6.75834 246.652 5.41576 244.408 5.92296C243.029 6.23623 241.232 6.005 239.987 5.33371C238.168 4.35661 236.721 2.70822 235.036 1.45514C233.015 -0.044075 231.233 -1.00626 229.079 1.76841C226.857 4.62513 223.606 5.3188 220.027 4.02097C218.387 3.43172 216.627 3.17812 214.92 2.76789L214.308 3.91654C214.368 3.97621 214.428 4.03588 214.487 4.09555C214.122 6.18402 213.831 7.85478 213.533 9.52555C213.98 9.29433 214.435 9.06311 214.882 8.83189C217.656 11.7334 220.683 14.4484 223.136 17.6034C225.686 20.8778 229.533 23.9359 226.611 29.1496C226.141 29.9925 227.476 31.8273 227.923 33.2147C228.072 33.6771 228.214 34.1396 228.363 34.6617C228.318 34.7064 228.266 34.7512 228.221 34.781C227.513 35.139 226.402 34.9153 225.53 34.6841C224.873 34.5125 224.322 33.9456 223.151 33.1699C221.816 38.3016 220.676 43.0827 219.304 47.7966C218.372 50.989 217.828 54.6438 215.882 57.1201C205.495 70.3296 194.423 82.935 179.929 91.9004C176.574 93.974 173.024 95.8685 169.341 97.2484C160.275 100.657 151.201 104.148 141.896 106.781C133.798 109.071 126.924 112.696 122.354 119.834C120.773 122.302 116.709 124.048 119.051 128.158C118.961 128.337 118.872 128.516 118.782 128.687C117.947 128.374 116.754 127.934 115.36 127.419C114.771 126.934 114.182 126.45 113.593 125.965C113.466 126.181 113.339 126.405 113.212 126.621C113.093 126.576 112.974 126.532 112.855 126.487C112.743 126.979 112.638 127.389 112.556 127.747C112.295 128.202 112.034 128.65 111.781 129.112C109.186 133.871 110.633 139.875 107.031 144.373C105.786 145.932 104.757 147.752 104.004 149.609C102.617 153.025 101.439 156.531 100.306 160.036C99.9408 161.155 99.65 162.49 99.9035 163.587C101.089 168.651 100.299 169.942 95.8624 172.284C93.7448 173.395 90.494 176.08 90.7848 177.356C91.7839 181.719 87.1016 182.517 86.6318 185.643C86.5945 185.881 86.0279 186.262 85.7669 186.217C84.4174 186.001 82.9784 185.926 81.5841 185.777C80.1973 185.143 78.8925 184.292 78.0947 183.42C75.5224 180.623 74.4413 176.379 73.0097 172.649C71.6602 169.136 67.03 165.459 64.0178 166.168C62.8025 165.645 61.5722 165.608 59.9394 166.265C58.7091 166.757 56.7258 165.989 55.3241 165.295C52.2671 163.788 49.4562 161.759 46.362 160.365C44.3712 159.462 42.4178 159.746 40.9862 162.147C40.3152 163.266 39.2639 164.236 38.1157 165.034C39.2639 162.692 40.3525 160.462 41.0757 158.992C38.8538 156.874 36.0578 155.419 36.0727 153.995C36.1175 150.176 39.6441 152.898 41.1428 152.078C43.827 150.609 47.9352 147.931 47.8383 145.924C47.5624 140.211 45.4747 134.587 44.1625 129.194C42.9621 129.411 41.7467 129.53 40.5612 129.634C40.4568 129.165 40.3599 128.695 40.2555 128.232C40.0766 127.464 39.07 126.629 38.2722 126.375C37.7652 126.218 36.9376 127.084 36.2591 127.501C35.1109 128.195 33.9776 128.926 32.807 129.575C31.8526 130.097 30.4136 130.246 29.9364 131.022C26.4619 136.623 18.8643 137.668 16.1652 144.619C14.5994 148.647 10.1408 151.66 6.68863 154.808C3.76588 157.471 1.58873 159.693 1.03699 164.355C0.291386 170.688 -1.98269 176.543 4.10886 181.436C5.44348 182.502 6.65881 183.837 7.55353 185.277C8.05308 186.083 8.25439 187.82 7.75484 188.365C3.61676 192.855 3.87772 194.959 8.70921 198.576C9.35788 199.061 9.96927 199.561 10.5583 200.083C12.1091 201.828 13.6227 203.655 14.9946 205.565C16.4038 208.235 17.0301 211.293 16.5902 214.829C16.4411 216.045 16.0459 217.007 15.4793 217.678C14.9201 217.723 14.3236 217.723 13.6749 217.656C12.4297 217.536 11.371 217.678 10.5359 218.096C9.90962 217.768 9.3206 217.395 8.7614 217.089C4.1685 220.915 4.16105 225.525 8.77631 228.777C9.82015 229.515 10.8714 230.246 11.9302 230.962C12.4372 231.372 12.9964 231.76 13.6227 232.111C13.6674 232.133 13.7122 232.163 13.7644 232.193C16.113 233.744 18.5064 235.221 20.9818 236.541C22.9203 237.578 24.8813 238.585 26.8496 239.577C33.396 243.292 39.9424 247.013 46.4738 250.75C47.801 251.511 49.1282 252.384 50.2615 253.406C50.8356 254.248 51.3351 255.173 51.7527 256.203C52.4461 257.926 54.3399 259.127 55.4136 260.745C58.7017 265.735 61.9972 270.725 65.0094 275.879C66.523 278.467 67.4103 281.413 68.6256 284.173C69.2146 285.523 69.7887 286.903 70.5791 288.126C71.3172 289.26 72.0404 290.409 72.7637 291.557C73.9492 294.049 75.3658 296.622 77.2746 298.091C77.5131 298.397 77.7517 298.695 77.9978 298.994C80.2719 301.731 83.6047 303.596 85.834 306.363C87.7801 308.78 88.8537 311.912 90.3002 314.739C90.8967 315.918 91.1427 317.492 92.0672 318.245C92.537 318.625 92.9918 319.006 93.4242 319.394C94.3488 320.863 95.3628 322.265 96.5408 323.541C96.9733 324.794 97.0404 326.226 96.5707 327.956C96.3172 328.881 97.2566 330.201 97.8009 331.26C98.472 332.573 99.4338 333.752 100.023 335.094C100.873 337.048 101.581 339.077 102.192 341.114C102.446 341.956 102.282 342.919 102.327 343.829C102.371 344.701 102.439 345.574 102.528 346.924C103.952 346.103 104.787 345.626 105.391 345.283C105.831 347.073 105.995 348.707 106.644 350.124C107.33 351.616 108.903 352.764 109.358 354.286C110.58 358.388 111.348 362.632 114.197 366.004C114.927 368.167 115.658 370.33 116.389 372.493C117 375.603 117.522 378.758 118.961 381.421C122.995 388.924 127.655 396.115 132.456 403.163C135.752 407.997 137.683 413.27 139.167 418.76C139.182 419.416 139.167 420.087 139.085 420.781C139.025 421.34 139.01 421.862 139.04 422.362C139.04 422.362 139.033 422.37 139.025 422.377C136.632 424.503 138.347 425.569 140.047 426.569C140.613 426.905 141.21 427.218 141.806 427.524C142.537 428.105 143.387 428.628 144.356 429.105C146.123 429.985 147.682 431.014 149.053 432.193C150.381 433.528 151.7 434.96 152.856 436.482C154.437 438.854 155.615 441.598 156.472 444.739C156.562 445.074 156.666 445.41 156.77 445.738C157.173 448.804 157.076 452.056 157.382 455.173C158.359 455.718 160.506 456.233 160.677 457.128C161.274 460.275 163.66 461.372 165.815 462.781C167.268 465.034 168.924 467.175 170.504 469.353C171.272 472.306 173.472 474.38 175.06 476.834C175.246 477.125 175.44 477.415 175.634 477.706C178.065 482.383 180.108 487.276 182.449 492.027C182.583 492.318 182.725 492.609 182.881 492.885C185.036 497.151 187.482 501.284 190.747 504.991C193.066 507.616 191.597 513.643 191.657 518.118C191.657 518.663 190.337 519.282 189.569 519.767C188.168 520.647 186.714 521.445 185.282 522.28C185.595 522.661 185.908 523.041 186.222 523.421C186.222 523.943 186.878 525.711 187.392 525.831C187.862 525.942 188.242 526.084 188.57 526.256C188.906 526.621 189.271 527.016 189.234 527.345C188.98 529.411 189.189 531.208 189.95 532.752C189.838 533.729 189.666 534.706 189.539 535.706C191.456 535.81 193.096 536.385 194.267 537.25C194.528 537.944 194.639 538.913 194.997 539.57C195.34 540.196 195.713 540.815 196.086 541.434C196.064 541.531 196.049 541.636 196.019 541.733C198.166 545.052 199.911 547.677 201.573 550.355C201.648 550.474 201.715 550.609 201.79 550.735C202.058 551.407 202.364 552.041 202.707 552.637C203.199 553.704 203.713 554.718 204.534 555.36C204.854 555.606 205.182 555.845 205.503 556.083C207.889 558.314 210.856 559.954 213.682 561.76C215.091 562.662 216.635 563.497 217.88 564.586C218.066 564.758 218.253 564.937 218.431 565.116C218.528 565.213 218.625 565.31 218.715 565.414C219.781 566.645 220.832 567.891 221.884 569.136C223.062 571.135 224.083 573.291 226.26 574.387C227.498 575.886 228.736 577.386 229.973 578.877C231.345 582.085 233.925 584.248 236.9 586.135C244.736 591.11 254.496 592.788 260.916 600.21C261.363 600.732 262.183 601.038 262.884 601.217C265.613 601.933 268.223 602.738 270.661 603.946C270.966 604.282 271.28 604.61 271.645 604.856C273.442 606.08 275.216 607.37 276.998 608.638C280.383 612.248 284.753 614.448 289.569 616.067C296.056 619.17 302.744 621.87 309.268 624.906C313.637 626.934 317.678 630.149 322.204 631.313C324.351 632.312 326.611 633.103 329.086 633.483C333.299 635.236 337.064 637.645 340.702 640.509C340.784 640.688 340.874 640.867 340.948 641.061C341.187 641.673 341.895 642.232 342.522 642.531C345.772 644.052 347.972 647.26 351.357 648.602C352.684 649.438 354.049 650.206 355.435 650.914C355.48 650.944 355.525 650.989 355.57 651.011C357.732 652.346 359.931 653.637 362.191 654.8C364.539 656.016 367.112 656.911 369.423 658.164C371.279 660.372 371.943 663.43 372.077 668.636C372.144 671.165 373.054 672.097 375.388 673.142C375.932 673.388 376.469 673.641 377.013 673.895C381.256 676.543 385.468 679.012 389.472 681.712C394.565 685.62 399.478 689.797 404.235 694.116C405.801 695.54 407.389 696.465 409.044 696.913C409.633 697.383 410.222 697.853 410.819 698.315C411.505 698.852 412.698 699.098 413.577 698.964C417.924 698.278 422.331 697.741 426.543 696.547C432.754 694.787 436.825 686.664 434.983 680.533C434.521 678.989 433.723 677.401 433.813 675.879C433.873 674.783 435.185 672.828 435.878 672.851C439.949 672.992 442.208 670.442 444.557 667.824C446.943 665.153 446.98 661.894 444.736 659.395C444.341 657.747 443.17 656.397 441.291 655.442C441.366 654.703 442.201 653.995 443.916 652.995C448.292 650.437 450.969 646.618 454.041 642.844C456.621 639.682 458.179 635.109 463.093 634.095C463.816 633.946 464.86 631.991 464.636 631.193C463.286 626.45 464.666 623.541 469.512 622.094C470.31 621.855 471.138 618.961 471.056 618.916C470.496 618.603 469.915 618.245 469.341 617.872C466.537 614.284 464.017 610.876 458.626 612.352C458.172 612.479 457.598 612.308 457.023 612.039C456.949 611.875 456.874 611.704 456.8 611.532C454.473 605.908 452.222 600.247 450.06 594.556C449.694 593.601 449.485 592.176 449.94 591.393C452.781 586.552 455.83 581.831 459.223 576.401C458.53 575.693 456.882 574.372 455.711 572.709C454.116 570.449 452.319 568.085 451.64 565.496C450.917 562.737 451.573 559.783 455.04 558.59C455.473 558.44 455.912 557.59 455.927 557.053C456.054 551.63 460.572 549.303 463.577 545.872C464.45 544.873 465.232 543.306 465.15 542.061C465.024 539.965 465.314 538.615 467.603 538.354C470.772 537.988 471.197 536.221 470.034 533.632C468.446 530.082 466.783 526.569 465.27 522.989C465.121 522.638 464.979 522.28 464.845 521.922C465.053 521.594 465.285 521.258 465.568 520.915C464.942 520.214 464.353 519.55 463.786 518.916C463.607 518.387 463.45 517.909 463.316 517.529C464.502 514.471 466.217 511.897 466.381 509.22C466.515 507.042 466.597 504.864 466.634 502.678C466.873 500.642 466.94 498.591 466.918 496.54C466.858 491.498 467.365 486.858 469.706 482.495C470.258 482.04 470.862 481.622 471.496 481.227C473.486 479.989 476.245 479.713 474.329 476.312C474.172 476.036 474.97 475.073 475.477 474.596C477.438 472.761 477.378 471.053 476.021 468.696L475.991 468.726Z" fill="#EFE7DA"/>
</svg>
