<svg width="58" height="70" viewBox="0 0 58 70" fill="none" xmlns="http://www.w3.org/2000/svg">
<g id="Laag_1" clip-path="url(#clip0_3237_25184)">
<path id="Vector" d="M36.0805 64.3328C35.6312 64.1937 35.1363 64.159 34.6612 64.159C28.0729 64.1469 21.4845 64.159 14.8962 64.1454C9.66958 64.1363 5.87598 60.3814 5.87294 55.1934C5.86383 41.7306 5.86687 28.2679 5.87901 14.8051C5.88357 9.62317 9.68324 5.85916 14.8962 5.84706C19.1513 5.83799 23.4064 5.84706 27.6615 5.84706C28.1806 5.84706 28.6998 5.84706 29.2843 5.84706C29.2843 6.21137 29.2843 6.45626 29.2843 6.70115C29.2843 11.2346 29.263 15.768 29.2873 20.3015C29.3131 25.3156 33.1279 29.1265 38.1557 29.1492C43.7376 29.1749 49.3194 29.1643 54.9013 29.1537C57.1662 29.1492 58.455 27.4259 57.8554 25.2385C56.8914 21.7118 55.0986 18.6643 52.5043 16.0809C49.1403 12.7311 45.7763 9.37828 42.4108 6.02997C39.5736 3.20772 36.205 1.3363 32.2809 0.483728C31.37 0.285702 30.444 0.161747 29.5241 0.0030233C24.0789 0.0030233 18.6336 0.00151165 13.1884 0C13.0852 0.0393029 12.9835 0.0997689 12.8772 0.114885C5.28242 1.1806 0.0117649 7.19394 0.00721072 14.8202C-0.000379512 28.283 -0.0064517 41.7473 0.0132829 55.21C0.014801 56.3181 0.113474 57.4503 0.356361 58.5281C1.89566 65.3396 7.74014 69.9758 14.7565 69.9894C21.1612 70.003 27.5673 69.994 33.9735 69.9955C34.4304 69.9955 34.8904 70.0136 35.3458 69.9849C36.6908 69.8972 37.843 68.8451 38.0236 67.5572C38.2286 66.103 37.4422 64.7546 36.0805 64.3343V64.3328ZM35.15 7.83337C37.2768 8.81595 49.916 21.4337 50.6781 23.3474C50.4003 23.3474 50.1619 23.3474 49.9236 23.3474C46.1285 23.3474 42.3319 23.3474 38.5367 23.3444C36.2976 23.3429 35.1485 22.2031 35.1485 19.9901C35.1485 15.96 35.1485 11.9315 35.15 7.83337Z" fill="#004D37"/>
<path id="Vector_2" d="M29.1048 37.9077C24.3473 37.8941 19.5912 37.8926 14.8337 37.9047C13.0272 37.9092 11.6974 39.1835 11.711 40.8418C11.7232 42.5198 13.0393 43.7381 14.8625 43.7427C17.2185 43.7487 19.5745 43.7442 21.929 43.7457C24.3078 43.7457 26.6866 43.7502 29.0653 43.7457C30.89 43.7412 32.2062 42.5303 32.2229 40.8509C32.2396 39.1911 30.9128 37.9122 29.1063 37.9077H29.1048Z" fill="#004D37"/>
<path id="Vector_3" d="M24.9342 49.6034C20.0173 49.5823 19.5027 49.5928 14.5872 49.5989C14.317 49.5989 14.0377 49.6427 13.7796 49.7213C12.4528 50.1234 11.5754 51.431 11.7257 52.7507C11.8957 54.2412 13.0115 55.3552 14.4885 55.3794C16.9812 55.4187 19.4738 55.3915 21.9664 55.3915C21.9664 55.3945 21.9664 55.3976 21.9664 55.4006C24.3225 55.4006 22.2746 55.4142 24.6306 55.3915C25.1012 55.387 25.6006 55.3295 26.0348 55.1602C27.2917 54.6705 27.9946 53.3266 27.7578 52.0039C27.5043 50.5935 26.4007 49.611 24.9357 49.6034H24.9342Z" fill="#004D37"/>
<path id="Vector_4" d="M41.9429 60.4856C40.4552 60.4856 39.2742 59.2657 38.4484 58.4116C37.703 57.6421 36.7542 56.5613 35.6278 55.2008C33.75 52.9318 32.021 50.6659 31.9481 50.5706C31.0616 49.4067 31.2908 47.7469 32.4597 46.8641C33.6286 45.9813 35.2954 46.2095 36.1819 47.372C38.1326 49.9327 40.5266 52.8653 41.9778 54.4314C44.2807 52.3363 48.9578 47.7922 53.1476 43.6216C54.1844 42.5891 55.8664 42.5876 56.9048 43.6216C57.9416 44.654 57.9416 46.329 56.9048 47.3629C56.8744 47.3932 53.8399 50.4134 50.7279 53.4352C44.0196 59.9459 43.552 60.1016 42.8462 60.3359C42.535 60.4387 42.2344 60.4856 41.946 60.4856H41.9429Z" fill="#6EA44C"/>
</g>
<defs>
<clipPath id="clip0_3237_25184">
<rect width="58" height="70" fill="white"/>
</clipPath>
</defs>
</svg>
