<svg width="26" height="27" viewBox="0 0 26 27" fill="none" xmlns="http://www.w3.org/2000/svg">
<g clip-path="url(#clip0_2024_406)">
<path d="M12.3398 0.5C12.7801 0.5 13.2199 0.5 13.6602 0.5C13.7064 0.51625 13.7516 0.541641 13.7993 0.547227C15.3613 0.745273 16.6771 1.42879 17.7562 2.56781C18.4656 3.31684 18.9612 4.19281 19.2466 5.18559C19.3908 5.68781 19.6869 5.99504 20.2175 6.13672C23.0958 6.90605 24.9387 8.74484 25.7583 11.6048C25.869 11.9908 25.9208 12.3935 26 12.7886V14.2104C25.9837 14.2566 25.9573 14.3018 25.9523 14.3491C25.8177 15.5962 25.3784 16.7297 24.6142 17.7194C22.91 19.9259 20.5613 20.876 17.8603 21.0527C16.7141 21.1279 15.5599 21.0816 14.4097 21.0908C14.3117 21.0913 14.2132 21.0908 14.0913 21.0908V21.4264C14.0913 22.662 14.073 23.8975 14.0989 25.1325C14.1126 25.7941 13.8897 26.2618 13.2544 26.5H12.7466C12.1108 26.2629 11.8889 25.7936 11.9021 25.133C11.9275 23.8898 11.9092 22.6457 11.9092 21.4016C11.9092 21.3041 11.9092 21.2066 11.9092 21.0908C11.7752 21.0908 11.6832 21.0908 11.5908 21.0908C10.4061 21.0908 9.22137 21.1106 8.03715 21.0827C7.41508 21.0679 6.77727 21.0436 6.17703 20.8968C3.07988 20.1396 1.03289 18.2587 0.185859 15.1458C0.102578 14.8401 0.0609375 14.5227 0 14.2109C0 13.7371 0 13.2629 0 12.7891C0.0330078 12.6169 0.0710937 12.4453 0.0980078 12.2716C0.556562 9.33594 2.81227 6.84309 5.68344 6.15805C6.29078 6.01332 6.59242 5.68172 6.77727 5.11348C7.50395 2.87809 9.00758 1.41762 11.2597 0.739687C11.6121 0.633555 11.9793 0.578711 12.3398 0.5ZM14.0923 18.8945C14.1898 18.9011 14.2477 18.9087 14.3061 18.9082C15.44 18.9016 16.575 18.9204 17.7074 18.8798C19.0277 18.8325 20.2714 18.4832 21.4023 17.7773C23.2167 16.6449 24.1505 14.6451 23.7484 12.6123C23.2873 10.284 21.8888 8.80527 19.5782 8.21723C18.918 8.04914 18.361 7.7277 17.9095 7.21836C17.5139 6.77199 17.2925 6.24031 17.1148 5.67867C16.3353 3.20969 13.5266 1.98027 11.1876 3.07766C9.93891 3.66367 9.18582 4.65289 8.78008 5.95898C8.40988 7.15082 7.61414 7.92727 6.37406 8.22231C3.6268 8.87535 1.87484 11.3966 2.22676 14.1967C2.54109 16.6952 4.75414 18.7117 7.35363 18.8701C8.81258 18.959 10.2802 18.9001 11.7442 18.9067C11.7919 18.9067 11.8396 18.8925 11.9087 18.8818C11.9087 18.4065 11.8991 17.9423 11.9133 17.4787C11.9199 17.2741 11.8513 17.1349 11.7081 16.9927C10.4523 15.7471 9.2041 14.4938 7.95285 13.2441C7.67305 12.9643 7.51969 12.6382 7.59281 12.2386C7.67051 11.8125 7.9234 11.5175 8.33219 11.3804C8.75672 11.2382 9.13555 11.352 9.44988 11.6607C9.96937 12.1705 10.4812 12.688 10.9952 13.2029C11.2811 13.4893 11.5649 13.7773 11.9082 14.1241C11.9082 13.958 11.9082 13.8692 11.9082 13.7803C11.9082 12.6718 11.9072 11.5632 11.9092 10.4541C11.9092 10.3191 11.9148 10.183 11.9346 10.0494C11.9971 9.62285 12.3617 9.2552 12.7847 9.18359C13.5251 9.05816 14.0842 9.55277 14.0887 10.3521C14.0954 11.4946 14.0903 12.6372 14.0908 13.7798C14.0908 13.8682 14.0908 13.9565 14.0908 14.1038C14.2071 13.9936 14.2746 13.9321 14.3391 13.8677C15.0693 13.1379 15.797 12.4052 16.5308 11.679C17 11.2143 17.6495 11.2032 18.0959 11.6409C18.5534 12.0893 18.5367 12.7515 18.0461 13.243C16.7857 14.508 15.5208 15.7684 14.2604 17.0334C14.1923 17.1019 14.102 17.1928 14.0994 17.2751C14.0847 17.8062 14.0918 18.3379 14.0918 18.893L14.0923 18.8945Z" fill="#004D37"/>
</g>
<defs>
<clipPath id="clip0_2024_406">
<rect width="26" height="26" fill="white" transform="translate(0 0.5)"/>
</clipPath>
</defs>
</svg>
