<svg width="14" height="13" viewBox="0 0 14 13" fill="none" xmlns="http://www.w3.org/2000/svg">
<g id="Laag_1" clip-path="url(#clip0_761_1779)">
<g id="Ya2vhi.tif">
<path id="Vector" d="M0 6.37001C0.0472796 6.13404 0.128705 5.91825 0.288931 5.74159C0.464916 5.54599 0.6803 5.43369 0.927204 5.42359C1.27917 5.40971 2.08424 5.4198 2.4454 5.4198V6.93281H1.45779V11.4744H7.54503V10.4068H9.0015C9.0015 10.6251 9.00281 11.2737 9.0015 11.4895C8.99887 11.6838 9.01069 11.8819 8.98574 12.0725C8.9227 12.5482 8.61276 12.8852 8.17673 12.9823C8.16492 12.9848 8.15441 12.9949 8.14259 13.0012H0.860225C0.841839 12.9937 0.824765 12.9836 0.806379 12.9798C0.520075 12.9142 0.296811 12.7489 0.151032 12.4763C0.0840525 12.3501 0.0499062 12.205 0 12.0687C0 10.1696 0 8.26915 0 6.37001Z" fill="#6EA44C"/>
<path id="Vector_2" d="M8.50237 9.75063C7.02226 9.75063 5.54346 9.7418 4.06335 9.75442C3.43821 9.75947 2.99299 9.22569 2.99562 8.59474C3.00612 6.11386 2.99956 3.63425 2.99956 1.15337C2.99956 0.459328 3.42376 0 4.06335 0C7.01963 0 9.97592 0 12.9322 0C13.5797 0 13.9999 0.458066 14.0012 1.16094C14.0012 3.64813 14.0012 6.13658 14.0012 8.62376C14.0012 9.16007 13.6887 9.61182 13.2395 9.71782C13.1423 9.74054 13.0412 9.74937 12.9427 9.74937C11.4626 9.75189 9.9838 9.75063 8.50368 9.75063H8.50237ZM4.50594 1.50922V8.23889H12.4962V1.50922H4.50594Z" fill="#6EA44C"/>
</g>
</g>
<defs>
<clipPath id="clip0_761_1779">
<rect width="14" height="13" fill="white"/>
</clipPath>
</defs>
</svg>
