<svg width="63" height="54" viewBox="0 0 63 54" fill="none" xmlns="http://www.w3.org/2000/svg">
<g clip-path="url(#clip0_2175_6878)">
<path d="M40.7433 34.5879H39.9375C38.6616 34.1948 38.1607 33.3262 38.1754 31.9348C38.2184 28.0105 38.1902 24.0849 38.1902 20.1592C38.1902 20.0295 38.1902 19.8998 38.1902 19.7756C38.0962 19.7539 38.0546 19.7404 38.0103 19.7364C35.9514 19.554 33.9598 19.0893 32.0635 18.2558C26.9574 16.0093 24.1438 12.0296 23.3528 6.53425C23.279 6.02632 23.2185 5.51569 23.1514 5.00641C23.1514 4.46606 23.1514 3.92571 23.1514 3.38535C23.1742 3.31106 23.2051 3.23946 23.2212 3.16381C23.5919 1.33337 25.1981 -0.0364196 27.0528 0.0216682C29.0055 0.0838086 30.8602 0.632265 32.6249 1.46035C36.0119 3.05034 38.4199 5.64402 40.1349 8.93882C40.194 9.05229 40.2584 9.16441 40.3444 9.32111C40.4733 9.07796 40.5754 8.88208 40.6801 8.68755C42.2877 5.69265 44.4983 3.2962 47.5294 1.71972C49.2525 0.82409 51.0951 0.333721 53.0088 0.0419313C55.3147 -0.309297 57.5132 1.50493 57.528 3.85006C57.536 5.15906 57.387 6.4532 57.1211 7.73248C56.5301 10.5828 55.3094 13.1036 53.2344 15.1677C50.8573 17.5331 47.9377 18.8137 44.7037 19.4486C43.9839 19.5905 43.252 19.6729 42.4891 19.7877C42.4891 19.9133 42.4891 20.0457 42.4891 20.1781C42.4891 24.2524 42.4891 28.3266 42.4891 32.4009C42.4891 33.4086 41.8821 34.2205 40.9259 34.5123C40.8641 34.5312 40.805 34.5609 40.7446 34.5866L40.7433 34.5879ZM42.8209 15.3676C45.8413 14.9273 48.5528 13.9762 50.5968 11.6554C52.4058 9.6021 53.0531 7.10837 53.1982 4.40932C51.0346 4.74569 49.1155 5.5319 47.469 6.92736C44.873 9.12794 43.5689 12.0566 42.8209 15.3676ZM37.8491 15.3636C37.5375 13.8695 37.0876 12.4781 36.439 11.1556C35.0718 8.37145 33.0627 6.25867 30.143 5.11178C29.2942 4.77811 28.4199 4.54036 27.508 4.42013C27.5577 7.13809 28.4696 10.2748 30.7554 12.3538C32.7618 14.1775 35.1913 14.9921 37.8491 15.3649V15.3636Z" fill="#6EA44C"/>
<path d="M18.5059 21.0008C18.6026 21.0008 18.6872 20.994 18.7597 20.9778C19.1358 20.9724 19.4111 20.9589 19.9093 20.9859C20.7769 21.0332 21.6364 21.171 22.4772 21.3871C23.244 21.5843 24.211 21.8261 24.2512 21.8315C24.2486 21.841 24.2472 21.8491 24.2445 21.8586C27.3643 23.0581 30.4438 24.2712 33.5434 25.4262C36.5168 26.534 38.3299 28.5981 38.91 31.7429C38.9208 31.7997 38.9611 31.851 39.0228 31.9766L39.595 31.6903C43.3594 29.8098 47.1238 27.9281 50.8882 26.049C54.5653 24.2145 58.922 25.3776 61.0694 28.7656C63.2706 32.2387 62.4406 36.756 59.1315 39.3214C59.0536 39.3822 58.9985 39.4713 58.9314 39.547L32.739 52.6316C31.9265 52.868 31.1193 53.1233 30.3014 53.3367C26.302 54.3783 22.3496 54.1702 18.4428 52.8612C16.2846 52.1371 14.1251 51.4212 11.979 50.662C11.4794 50.485 11.0362 50.1487 10.5661 49.8866L9.96985 48.6789C9.97388 48.5816 9.98731 48.483 9.98193 48.3871C9.86778 46.3743 11.5653 45.018 13.4764 45.6381C15.7179 46.3648 17.9432 47.1429 20.1779 47.8954C22.9123 48.8167 25.6977 49.0247 28.5072 48.3479C29.6031 48.0832 30.7097 47.7441 31.717 47.247C39.6823 43.3105 47.6247 39.3295 55.5712 35.3552C56.9357 34.673 57.4353 33.1735 56.7692 31.8429C56.1232 30.5528 54.6284 30.0611 53.2922 30.7217C47.1668 33.7449 41.0387 36.7628 34.924 39.809C32.8357 40.8492 30.7231 41.037 28.5018 40.3089C25.6641 39.3795 22.8062 38.5068 19.9617 37.5976C18.8135 37.2302 18.0923 36.294 18.048 35.1782C18.0063 34.1218 18.6268 33.0952 19.5817 32.6696C20.2424 32.3751 20.9126 32.39 21.5988 32.6102C24.5212 33.5437 27.4462 34.469 30.3726 35.3903C31.4913 35.7429 32.4663 35.4916 33.2265 34.5879C34.3156 33.2924 33.8416 31.2201 32.2609 30.592C29.0511 29.3154 25.8427 28.024 22.5833 26.8879C19.2285 25.7194 15.9032 26.0571 12.7149 27.6079C10.174 28.844 7.62901 30.0773 5.13776 31.4106C3.73567 32.1617 2.5028 32.1995 1.29545 31.1161L0.703188 29.9071C0.691101 28.8777 0.872406 27.924 1.76953 27.2702C1.98172 27.1162 2.21137 26.9811 2.44639 26.8636C4.99003 25.5883 7.54037 24.3239 10.0813 23.0446C12.7351 21.7086 15.5325 20.9845 18.5059 21.0008Z" fill="#004D37"/>
</g>
<defs>
<clipPath id="clip0_2175_6878">
<rect width="61.5938" height="54" fill="white" transform="translate(0.703125)"/>
</clipPath>
</defs>
</svg>
