<svg width="73" height="71" viewBox="0 0 73 71" fill="none" xmlns="http://www.w3.org/2000/svg">
<g clip-path="url(#clip0_2176_6883)">
<path d="M60.7392 0.0194092C61.307 0.0194092 61.8748 0.0194092 62.4426 0.0194092C63.2674 0.447788 64.1078 0.851213 64.9127 1.31148C66.8234 2.40669 68.7072 3.54764 70.6236 4.63315C71.5293 5.14609 72.3612 5.70479 72.8055 6.67384V8.06018C72.4194 9.04448 71.6684 9.62258 70.7003 10.0607C68.5184 11.0477 66.3791 12.1222 64.21 13.1383C63.8395 13.3116 63.7075 13.5154 63.7117 13.9175C63.733 16.1107 63.7245 18.3038 63.7203 20.497C63.716 22.4947 62.4611 23.7064 60.3942 23.7092C57.7467 23.712 55.0992 23.7092 52.4503 23.7092C52.199 23.7092 51.9477 23.7092 51.6709 23.7092V38.3905C52.1621 38.4751 52.6306 38.5264 53.082 38.6401C55.9126 39.3526 57.6459 41.6346 57.6899 44.6887C57.6984 45.2737 57.6899 45.8573 57.6899 46.581C58.3855 46.1748 58.9278 45.8615 59.4672 45.5426C62.3532 43.8319 65.2278 42.1059 68.1252 40.4132C69.8812 39.3873 71.8374 40.0444 72.638 41.8758C72.682 41.9756 72.7473 42.0657 72.8027 42.1614V43.6863C72.3456 44.7205 71.5151 45.3652 70.5456 45.9377C60.0052 52.1624 49.4819 58.4162 38.9473 64.6492C35.3387 66.7841 31.7075 68.8817 28.0861 70.9958H23.5435C21.7534 70.2569 21.1856 68.8928 21.2665 67.0697C21.356 65.0429 21.2878 63.0091 21.2878 60.9795C21.2878 60.4084 21.2878 59.8386 21.2878 59.2341H9.20726C9.20726 60.5983 9.17745 61.9306 9.21719 63.2615C9.24275 64.1335 8.98864 64.8835 8.48895 65.5919C7.76497 66.6164 7.04383 67.6451 6.37237 68.7014C5.75628 69.6691 5.06636 70.5383 3.95484 70.9972H2.39331C1.3116 70.5786 0.550704 69.8438 0.123413 68.7819C0.123413 68.2731 0.123413 67.7657 0.123413 67.2569C0.999289 65.9274 1.89504 64.609 2.73685 63.2587C2.95404 62.9093 3.1031 62.4574 3.10452 62.0512C3.12723 55.308 3.11019 48.5649 3.13291 41.8217C3.13575 40.9747 3.19537 40.0999 3.41966 39.2889C4.2785 36.1821 6.16227 33.8322 9.43439 33.085C14.2297 31.9898 19.0846 31.1413 23.9282 30.261C25.4287 29.9879 26.641 29.4098 27.7284 28.3396C30.5264 25.5863 33.4067 22.9134 36.2728 20.2281C38.0189 18.5936 40.1099 17.7604 42.5445 17.7646C47.2972 17.7715 52.0499 17.7673 56.8027 17.7673C57.0554 17.7673 57.3095 17.7673 57.6303 17.7673C57.6303 17.4499 57.6303 17.2017 57.6303 16.9522C57.6303 12.6573 57.626 8.36102 57.6317 4.06613C57.6345 2.13774 58.6467 0.774964 60.5049 0.15527C60.5887 0.127544 60.6597 0.0665447 60.7363 0.0207955L60.7392 0.0194092ZM21.3971 36.7893V53.2133C21.5178 53.2341 21.5859 53.2521 21.6555 53.2562C24.9262 53.4711 27.3664 55.9929 27.3778 59.1801C27.3835 60.773 27.3778 62.3673 27.382 63.9602C27.382 64.1265 27.4161 64.2929 27.4431 64.5313C29.2942 63.432 31.0602 62.3673 32.846 61.3372C33.2619 61.0974 33.428 60.8395 33.4266 60.3571C33.411 50.9119 33.4152 41.4668 33.4152 32.0217C33.4152 31.8109 33.4152 31.6016 33.4152 31.3909C33.3144 31.334 33.2122 31.2786 33.1114 31.2218C32.4811 31.908 31.8764 32.6178 31.2149 33.2735C29.8535 34.6238 28.2168 35.4834 26.2975 35.8341C24.6565 36.1336 23.0225 36.4704 21.3971 36.7893ZM51.5858 44.4072H39.5804V57.3154C39.8615 57.1546 40.0659 57.0423 40.2661 56.9245C43.5368 54.9864 46.7762 52.9942 50.0952 51.1379C51.238 50.4988 51.749 49.8098 51.617 48.4997C51.4807 47.155 51.5872 45.788 51.5872 44.4072H51.5858ZM15.2007 53.2216V38.0606C15.1141 38.0342 15.0673 38.001 15.0261 38.0093C13.916 38.2145 12.8158 38.5167 11.6972 38.6109C10.2648 38.7316 9.20016 40.1248 9.20442 41.5819C9.21577 45.3194 9.20726 49.0556 9.20868 52.7932C9.20868 52.9263 9.22287 53.058 9.23139 53.2216H15.2007ZM45.5157 23.7106C44.61 23.7106 43.7781 23.7702 42.9576 23.6981C41.0965 23.5359 39.4512 24.803 39.4967 27.0641C39.5662 30.6187 39.5151 34.1747 39.5165 37.7306C39.5165 37.9524 39.5378 38.1729 39.5478 38.4002H45.5157V23.7106Z" fill="#004D37"/>
<path d="M45.1239 0.0194092C45.5072 0.120612 45.8933 0.214883 46.2738 0.32579C49.5714 1.29761 51.8924 4.57908 51.6185 7.87857C51.3232 11.4401 48.6714 14.2377 45.1324 14.7243C40.9206 15.3038 37.2013 12.6545 36.5383 8.44004C35.9137 4.46956 38.6492 0.964893 42.4764 0.162202C42.607 0.134475 42.7277 0.0679311 42.854 0.0207955C43.6106 0.0207955 44.3687 0.0207955 45.1253 0.0207955L45.1239 0.0194092Z" fill="#004D37"/>
<path d="M10.6949 14.795C14.806 14.7631 18.2584 18.046 18.2911 22.0179C18.3266 26.2448 15.0715 29.5332 10.7844 29.6025C6.65626 29.6691 3.17121 26.3377 3.12294 22.2785C3.07468 18.1971 6.48449 14.8269 10.6949 14.795Z" fill="#004D37"/>
<path d="M70.6946 4.61374C68.7782 3.52823 66.8944 2.38728 64.9836 1.29207C64.1787 0.830417 63.3384 0.428379 62.5136 0H60.8101C60.7334 0.0457492 60.661 0.106748 60.5787 0.134475C58.7205 0.754169 57.7083 2.11694 57.7055 4.04534C57.7012 7.42108 57.7055 16.3976 57.724 21.0502C57.7296 22.5114 58.9448 23.6912 60.441 23.6898C60.4495 23.6898 60.458 23.6898 60.4666 23.6898C62.5335 23.687 63.7884 22.474 63.7926 20.4776C63.7969 18.2844 63.804 16.0912 63.7841 13.8981C63.7813 13.5653 63.9757 13.2617 64.2824 13.1189C66.4501 12.1027 68.5908 11.0297 70.7727 10.0413C71.7408 9.60317 72.4918 9.02507 72.8779 8.04077V6.65443C72.4321 5.68538 71.6017 5.12668 70.696 4.61374H70.6946Z" fill="#6EA44C"/>
</g>
<defs>
<clipPath id="clip0_2176_6883">
<rect width="72.7531" height="71" fill="white" transform="translate(0.123413)"/>
</clipPath>
</defs>
</svg>
