<svg width="18" height="17" viewBox="0 0 18 17" fill="none" xmlns="http://www.w3.org/2000/svg">
<path d="M15.6448 0C15.8557 0 16.0666 0 16.2776 0C16.3082 0.0119531 16.3374 0.0278906 16.369 0.0348633C17.1481 0.212168 17.6592 0.664726 17.9152 1.37826C17.9482 1.47057 17.9721 1.56586 17.9999 1.65982V2.4235C17.9883 2.47131 17.9732 2.51879 17.9658 2.56727C17.9053 2.97699 17.8695 3.39137 17.7826 3.79578C17.4838 5.18666 16.8478 6.41717 15.7759 7.42887C14.5279 8.60658 12.9898 9.24242 11.284 9.55752C10.9071 9.62724 10.5239 9.66775 10.1245 9.7242C10.1245 9.78596 10.1245 9.85103 10.1245 9.91611C10.1245 11.9193 10.1249 13.9224 10.1242 15.9255C10.1242 16.4209 9.80638 16.8204 9.30575 16.9635C9.27341 16.9728 9.24247 16.9874 9.21083 16.9997H8.78895C8.12063 16.8064 7.85872 16.3791 7.86645 15.6954C7.88895 13.766 7.87419 11.8362 7.87419 9.90648C7.87419 9.84273 7.87419 9.77932 7.87419 9.71756C7.82497 9.70726 7.80282 9.69996 7.77997 9.6983C6.70208 9.60865 5.65899 9.38055 4.66653 8.97049C1.99325 7.86615 0.520908 5.90916 0.106064 3.20809C0.0677441 2.95807 0.0354004 2.70738 0.000244141 2.45703C0.000244141 2.19141 0.000244141 1.92578 0.000244141 1.66016C0.0118457 1.62961 0.027666 1.59973 0.0346973 1.56818C0.190088 0.89084 0.606689 0.414375 1.27853 0.141113C1.43145 0.0790234 1.59774 0.0461523 1.75806 0C1.95739 0 2.15638 0 2.35571 0C2.38735 0.010957 2.41794 0.0282227 2.45063 0.032207C3.60657 0.174648 4.69255 0.51166 5.69274 1.08109C7.10638 1.88561 8.13716 3.02281 8.89407 4.39477C8.92466 4.45021 8.95735 4.50467 9.0006 4.57937C9.10677 4.39311 9.19395 4.23141 9.28923 4.07436C10.5422 2.01178 12.3591 0.65875 14.8425 0.148418C15.1086 0.0936328 15.3772 0.0491406 15.6448 0ZM15.7341 2.16418C15.1434 2.24486 14.6063 2.39029 14.0912 2.60512C12.8636 3.11711 11.9527 3.95648 11.2879 5.04488C10.815 5.81885 10.5049 6.65059 10.3056 7.54873C11.7808 7.34984 13.1248 6.92451 14.1851 5.91215C15.2651 4.88086 15.6462 3.58494 15.7344 2.16418H15.7341ZM2.26571 2.16152C2.35817 3.66795 2.78251 5.02795 3.98942 6.07185C5.03216 6.97365 6.30868 7.3681 7.70087 7.54807C7.64813 7.34652 7.6077 7.1742 7.55813 7.0042C7.19391 5.75377 6.60786 4.61789 5.61645 3.69783C4.68938 2.83754 3.56579 2.35311 2.26571 2.16152Z" fill="#004D37"/>
</svg>
