<svg width="35" height="35" viewBox="0 0 35 35" fill="none" xmlns="http://www.w3.org/2000/svg">
<path d="M16.0157 33.6355C6.51507 19.9703 4.82318 18.5387 4.82318 13.463C4.82318 6.56531 10.3544 0.969069 17.3171 0.969069C24.2148 0.969069 29.8111 6.56531 29.8111 13.463C29.8111 18.5387 28.0541 19.9703 18.5535 33.6355C17.9678 34.5465 16.6013 34.5465 16.0157 33.6355ZM17.3171 18.6688C20.1803 18.6688 22.5229 16.3913 22.5229 13.463C22.5229 10.5998 20.1803 8.2572 17.3171 8.2572C14.3889 8.2572 12.1113 10.5998 12.1113 13.463C12.1113 16.3913 14.3889 18.6688 17.3171 18.6688Z" fill="#6EA44C"/>
</svg>
