<svg width="24" height="25" viewBox="0 0 24 25" fill="none" xmlns="http://www.w3.org/2000/svg">
<g clip-path="url(#clip0_2024_398)">
<path d="M24 11.095V24.5H0C0 17.3615 0 10.2197 0 3.07843C0.015 3.04374 0.0370313 3.00998 0.0435937 2.97341C0.214219 2.063 0.698906 1.36213 1.5 0.910673C1.83141 0.724089 2.21719 0.634078 2.57812 0.5C6.1875 0.5 9.79688 0.5 13.4062 0.5C12.9937 0.996933 12.5222 1.45777 12.187 2.00205C11.9339 2.41366 11.6719 2.56555 11.2111 2.51867C10.8202 2.47883 10.4217 2.5107 10.0069 2.5107C10.0069 2.61947 10.0069 2.69682 10.0069 2.7737C10.0069 5.30525 10.005 7.8368 10.0134 10.3683C10.0134 10.4907 10.0763 10.644 10.1625 10.7307C12.0234 12.6041 13.8928 14.4694 15.7575 16.3395C15.8644 16.4464 15.9694 16.4952 16.1231 16.4947C17.9981 16.4895 19.8731 16.4914 21.7481 16.4909C21.8231 16.4909 21.8986 16.4839 21.9895 16.4792C21.9895 16.3756 21.9895 16.2908 21.9895 16.2059C21.9895 15.2059 21.9933 14.2055 21.9858 13.2056C21.9844 13.0419 22.0355 12.9322 22.1541 12.823C22.7733 12.2511 23.3855 11.6716 24.0005 11.095H24ZM2.01047 22.4837C2.09437 22.4874 2.14078 22.4916 2.18719 22.4916C4.8975 22.4916 7.60828 22.4935 10.3186 22.4851C10.4208 22.4851 10.5553 22.4105 10.6191 22.3276C11.1384 21.6539 11.6447 20.9699 12.1552 20.2892C12.8241 19.3966 13.4925 18.504 14.1666 17.6043C14.1295 17.5617 14.1014 17.5261 14.0695 17.4942C12.3633 15.7868 10.6552 14.0817 8.95312 12.3697C8.82609 12.2422 8.73984 12.2783 8.61234 12.3462C6.48187 13.4864 4.35 14.6237 2.21531 15.7559C2.06578 15.8351 2.00578 15.9199 2.00625 16.0948C2.01281 18.1416 2.01047 20.1884 2.01047 22.2352V22.4832V22.4837ZM7.99312 2.52149C7.89891 2.51727 7.83 2.51117 7.76156 2.51117C6.19172 2.5107 4.62188 2.50977 3.05203 2.51117C2.41969 2.51211 2.01187 2.9181 2.01187 3.54958C2.01047 6.8223 2.01094 10.0955 2.01187 13.3682C2.01187 13.432 2.02219 13.4957 2.02922 13.5764C2.15109 13.5131 2.24766 13.4639 2.34328 13.4128C4.15266 12.4484 5.96109 11.4818 7.77328 10.5231C7.94156 10.434 7.99781 10.3327 7.99734 10.1438C7.99078 7.691 7.99312 5.23821 7.99312 2.78542V2.52055V2.52149ZM21.9783 18.5105C21.9239 18.5068 21.8859 18.5026 21.8484 18.5026C19.9509 18.5026 18.053 18.5002 16.1555 18.5087C16.0688 18.5087 15.9553 18.5818 15.8995 18.6549C14.9803 19.8682 14.0686 21.0866 13.1559 22.3051C13.1175 22.3566 13.0866 22.4143 13.0458 22.479H21.9783V18.5105Z" fill="#004D37"/>
<path d="M24.0001 6.59446C23.9382 6.8734 23.8857 7.15469 23.8135 7.43034C23.5426 8.46125 23.003 9.33041 22.2216 10.0538C21.0638 11.1255 19.9088 12.2 18.7524 13.2735C18.6732 13.3471 18.593 13.4198 18.5007 13.5046C18.2447 13.2679 17.9987 13.0419 17.7544 12.8141C16.6857 11.8188 15.5733 10.8657 14.5594 9.8175C13.0782 8.28638 12.6207 6.42757 13.2451 4.39249C13.869 2.35928 15.2944 1.11179 17.364 0.610169C17.5426 0.566101 17.7254 0.536098 17.9063 0.5C18.2968 0.5 18.6877 0.5 19.0782 0.5C19.1213 0.515002 19.163 0.537036 19.2076 0.544068C21.4299 0.891452 22.9252 2.13472 23.7085 4.23075C23.8505 4.61142 23.9054 5.02444 24.0001 5.42292V6.59493V6.59446ZM18.4993 10.7631C19.3008 10.0205 20.0912 9.28869 20.8819 8.55688C22.0037 7.51801 22.3158 5.8575 21.6483 4.47922C20.9794 3.09859 19.4897 2.30724 17.9738 2.55524C16.5891 2.78214 15.6385 3.57724 15.1941 4.8988C14.7451 6.23489 15.0427 7.45613 16.0299 8.45749C16.8132 9.25165 17.6597 9.98345 18.4993 10.7631Z" fill="#004D37"/>
<path d="M16.9963 6.00799C16.9954 5.18102 17.6737 4.4975 18.4982 4.49515C19.3152 4.49281 20.0085 5.18477 20.0094 6.00377C20.0108 6.82324 19.3223 7.51379 18.5019 7.51613C17.6807 7.51848 16.9968 6.83402 16.9958 6.00752L16.9963 6.00799Z" fill="#004D37"/>
</g>
<defs>
<clipPath id="clip0_2024_398">
<rect width="24" height="24" fill="white" transform="translate(0 0.5)"/>
</clipPath>
</defs>
</svg>
