<svg width="23" height="21" viewBox="0 0 23 21" fill="none" xmlns="http://www.w3.org/2000/svg">
<path d="M0.8125 4.45312C0.355469 4.45312 0 4.09766 0 3.64062V1.60938C0 1.20312 0.355469 0.796875 0.8125 0.796875H21.9375C22.3438 0.796875 22.75 1.20312 22.75 1.60938V3.64062C22.75 4.09766 22.3438 4.45312 21.9375 4.45312H0.8125ZM0.8125 12.5781C0.355469 12.5781 0 12.2227 0 11.7656V9.73438C0 9.32812 0.355469 8.92188 0.8125 8.92188H21.9375C22.3438 8.92188 22.75 9.32812 22.75 9.73438V11.7656C22.75 12.2227 22.3438 12.5781 21.9375 12.5781H0.8125ZM0.8125 20.7031C0.355469 20.7031 0 20.3477 0 19.8906V17.8594C0 17.4531 0.355469 17.0469 0.8125 17.0469H21.9375C22.3438 17.0469 22.75 17.4531 22.75 17.8594V19.8906C22.75 20.3477 22.3438 20.7031 21.9375 20.7031H0.8125Z" fill="#004D37"/>
</svg>
