<svg width="35" height="35" viewBox="0 0 35 35" fill="none" xmlns="http://www.w3.org/2000/svg">
<path d="M15.9152 33.1482C6.41461 19.483 4.72272 18.0514 4.72272 12.9757C4.72272 6.07801 10.2539 0.481764 17.2167 0.481764C24.1143 0.481764 29.7106 6.07801 29.7106 12.9757C29.7106 18.0514 27.9536 19.483 18.453 33.1482C17.8674 34.0592 16.5009 34.0592 15.9152 33.1482ZM17.2167 18.1815C20.0798 18.1815 22.4225 15.904 22.4225 12.9757C22.4225 10.1125 20.0798 7.76989 17.2167 7.76989C14.2884 7.76989 12.0108 10.1125 12.0108 12.9757C12.0108 15.904 14.2884 18.1815 17.2167 18.1815Z" fill="#DD6B17"/>
</svg>
