<svg width="71" height="71" viewBox="0 0 71 71" fill="none" xmlns="http://www.w3.org/2000/svg">
<path d="M28.6847 63.0849C23.9762 63.0809 19.2691 63.097 14.5606 63.0782C9.67546 63.0594 5.93345 59.3076 5.9294 54.4209C5.91997 41.088 5.91997 27.7537 5.9294 14.4208C5.93345 9.50987 9.70643 5.77155 14.632 5.7702C24.115 5.76617 33.5995 5.76886 43.0825 5.7702C43.4856 5.7702 43.894 5.75541 44.2903 5.81592C48.7602 6.49635 51.8013 10.0289 51.8175 14.5512C51.8242 16.3666 51.8148 18.182 51.8202 19.996C51.8242 21.642 52.9835 22.8899 54.5741 22.9732C56.1027 23.0526 57.537 21.8168 57.5626 20.2233C57.6017 17.7839 57.6651 15.3298 57.4548 12.9039C56.9425 6.97373 52.7772 2.11121 47.02 0.513684C46.2948 0.311975 45.5548 0.169435 44.8215 0H12.9362C12.3296 0.133127 11.7217 0.258187 11.1178 0.399382C5.39965 1.74679 1.00655 6.63217 0.286727 12.4575C0.2045 13.1218 0.162722 13.7942 0.161374 14.4638C0.154634 27.7698 0.154629 41.0772 0.155977 54.3832C0.155977 61.7348 5.34168 67.6906 12.6329 68.7274C12.7381 68.7422 12.8351 68.8067 12.9362 68.8484H29.6189C29.786 68.7543 29.9505 68.6548 30.1217 68.5687C31.4616 67.8963 32.0695 66.3862 31.5613 64.9917C31.13 63.8084 30.0529 63.0836 28.6834 63.0822L28.6847 63.0849Z" fill="#004D37"/>
<path d="M43.5396 14.3885C39.4836 14.3266 35.4261 14.3441 31.37 14.402C30.8457 14.41 30.2539 14.7462 29.8212 15.0905C28.8776 15.8448 28.6107 17.0726 29.0165 18.1941C29.4357 19.3573 30.4507 20.074 31.8297 20.0942C33.7128 20.1224 35.5959 20.1009 37.4804 20.1022C39.2517 20.1022 41.023 20.113 42.7942 20.0955C43.2377 20.0915 43.7001 20.0605 44.1179 19.9301C45.4295 19.5213 46.2006 18.2869 46.0631 16.9152C45.9256 15.5503 44.9186 14.4087 43.541 14.3872L43.5396 14.3885Z" fill="#004D37"/>
<path d="M20.3665 28.6762C18.3742 28.6224 16.3792 28.6224 14.3869 28.6762C12.7989 28.7192 11.5561 30.1056 11.6127 31.6413C11.6693 33.2227 12.9297 34.4155 14.5581 34.4235C15.499 34.4289 16.4398 34.4235 17.3807 34.4235C18.3216 34.4235 19.2625 34.4276 20.2034 34.4235C21.8304 34.4141 23.0908 33.2187 23.1461 31.6373C23.2013 30.103 21.9558 28.7179 20.3665 28.6749V28.6762Z" fill="#004D37"/>
<path d="M20.1671 43.0338C19.2491 43.0297 18.3298 43.0338 17.4118 43.0338C16.4709 43.0338 15.5301 43.0311 14.5892 43.0338C12.919 43.0405 11.6452 44.2481 11.6115 45.8496C11.5791 47.392 12.826 48.7462 14.422 48.7851C16.3914 48.8322 18.3649 48.8322 20.3343 48.7851C21.9303 48.7462 23.1785 47.392 23.1462 45.851C23.1111 44.2467 21.8386 43.0405 20.1671 43.0338Z" fill="#004D37"/>
<path d="M14.1952 20.0484C15.2413 20.125 16.2981 20.0632 17.3495 20.0632C17.3495 20.0592 17.3495 20.0565 17.3495 20.0524C18.4454 20.0524 19.544 20.0914 20.6372 20.0403C21.5215 19.9986 22.1888 19.5024 22.6646 18.7723C23.8306 16.9797 22.7266 14.5256 20.5928 14.3965C18.4522 14.2674 16.2981 14.3656 14.1508 14.375C13.9553 14.375 13.7544 14.4369 13.5671 14.5014C12.308 14.9385 11.479 16.2106 11.6219 17.4692C11.781 18.8597 12.8095 19.9462 14.1966 20.0471L14.1952 20.0484Z" fill="#004D37"/>
<path d="M70.0476 66.4548C68.5433 64.9191 67.0079 63.413 65.486 61.8935C63.8563 60.2664 62.2267 58.6393 60.5929 57.0162C60.4958 56.9194 60.3678 56.8535 60.2411 56.7647C60.3732 56.563 60.4513 56.438 60.5349 56.3169C62.0298 54.1734 63.0004 51.8135 63.4641 49.245C63.7188 47.8304 62.7254 46.4789 61.2291 46.2019C59.8245 45.9411 58.4617 46.9267 58.1692 48.4207C57.5181 51.7556 55.8102 54.4195 53.0239 56.3707C47.5215 60.2247 39.7598 58.88 35.8627 53.415C35.8237 53.3599 35.7886 53.3034 35.7414 53.2335C37.6502 50.9179 39.5549 48.609 41.5904 46.1374C41.6807 46.3109 41.7238 46.4709 41.8249 46.5785C42.7955 47.6085 43.7727 48.6305 44.7527 49.6511C46.8259 51.8081 50.3442 51.765 52.3001 49.5032C57.0895 43.9657 61.8559 38.4093 66.6184 32.8475C67.9704 31.2674 67.1751 28.9276 65.1477 28.4893C64.1327 28.2701 63.2498 28.5861 62.5677 29.3754C60.5551 31.7058 58.552 34.0416 56.5449 36.376C53.9231 39.4245 51.2999 42.473 48.678 45.5215C48.616 45.5941 48.55 45.664 48.4637 45.7582C48.364 45.6667 48.2723 45.5887 48.1901 45.5027C47.2303 44.5009 46.2746 43.4964 45.3135 42.4959C43.065 40.1588 39.563 40.3026 37.4938 42.8078C36.224 44.3462 34.9394 45.8711 33.555 47.3934C33.5402 46.8124 33.4863 46.2302 33.5173 45.6519C33.8219 39.9127 37.758 35.2599 43.3805 34.0362C45.8864 33.4903 48.3464 33.7283 50.7149 34.7261C51.4657 35.0434 52.2098 35.2277 53.0118 34.9601C54.0255 34.6212 54.7804 33.6611 54.8303 32.6485C54.8882 31.4544 54.3247 30.4821 53.2652 30.0007C51.4468 29.1764 49.5435 28.6789 47.5484 28.5054C44.041 28.2015 40.7128 28.8187 37.6286 30.5036C32.5642 33.2711 29.4827 37.5083 28.4178 43.183C28.3167 43.7223 28.2493 44.2696 28.1658 44.8128V47.4727C28.2736 48.1652 28.3572 48.8631 28.4947 49.5503C29.3965 54.0766 31.7339 57.706 35.426 60.4627C37.8119 62.2445 40.5039 63.3418 43.4533 63.7398C48.0404 64.3597 52.2583 63.3431 56.0879 60.7424C56.2119 60.6577 56.3373 60.5757 56.5799 60.4009C56.6703 60.542 56.7377 60.7061 56.8522 60.8218C59.8218 63.7922 62.8022 66.7533 65.7664 69.7292C66.3205 70.2859 66.892 70.7888 67.6685 70.9999H68.6687C68.972 70.8695 69.2955 70.774 69.5731 70.6033C71.0465 69.7023 71.2851 67.7121 70.0503 66.4521L70.0476 66.4548Z" fill="#6EA44C"/>
</svg>
