<svg width="29" height="29" viewBox="0 0 29 29" fill="none" xmlns="http://www.w3.org/2000/svg">
<g id="Laag_1" clip-path="url(#clip0_3258_6122)">
<g id="_7fopTt.tif">
<path id="Vector" d="M23.5065 29H5.49829C5.43531 28.983 5.37289 28.9586 5.30877 28.9501C2.28849 28.5699 0.0166012 26.0382 0.00979233 22.9952C-0.00269055 17.3337 -0.00382535 11.6715 0.00979233 6.00998C0.017736 2.69804 2.69929 0.0176277 6.01349 0.00968407C11.675 -0.00450102 17.3372 -0.0022314 22.9987 0.00968407C25.7126 0.0153581 28.0656 1.83899 28.7789 4.45472C28.8725 4.79744 28.927 5.15036 29.0001 5.49875V23.507C28.982 23.5876 28.9559 23.6676 28.9457 23.7493C28.6376 26.2027 26.7697 28.2755 24.3611 28.8304C24.0785 28.8956 23.7919 28.9439 23.5071 29H23.5065ZM22.9488 26.5863C23.1814 26.5664 23.3607 26.5653 23.5349 26.5341C25.3466 26.2067 26.5734 24.7655 26.5756 22.9231C26.583 17.3081 26.5785 11.6931 26.5768 6.0775C26.5768 5.88004 26.5711 5.67918 26.537 5.4857C26.2148 3.63993 24.7594 2.42796 22.8552 2.42739C17.2872 2.42455 11.7193 2.42569 6.15137 2.42796C5.92554 2.42796 5.69574 2.4308 5.47502 2.46995C3.64855 2.79393 2.43488 4.24025 2.42807 6.1036C2.42182 7.70765 2.42636 9.31227 2.42636 10.9163C2.42636 14.8989 2.4275 18.8815 2.42636 22.8636C2.4258 24.2872 3.03803 25.3681 4.25057 26.0995C4.78903 26.4246 5.38084 26.5954 6.05151 26.5653C6.05151 26.4206 6.04753 26.2998 6.05207 26.1795C6.07761 25.5014 6.04867 24.8154 6.14172 24.1465C6.77154 19.626 10.9578 16.4394 15.5175 16.9847C19.6839 17.4829 22.8574 20.9713 22.9482 25.157C22.9584 25.6172 22.9494 26.0779 22.9494 26.5857L22.9488 26.5863Z" fill="#6EA44C"/>
<path id="Vector_2" d="M9.67583 9.67024C9.66391 7.00855 11.8303 4.84334 14.5152 4.83426C17.1463 4.82518 19.32 6.99663 19.3274 9.64017C19.3347 12.316 17.1939 14.4915 14.5447 14.5011C11.8439 14.5108 9.68831 12.3722 9.67583 9.67024Z" fill="#6EA44C"/>
</g>
</g>
<defs>
<clipPath id="clip0_3258_6122">
<rect width="29" height="29" fill="white"/>
</clipPath>
</defs>
</svg>
